<svg width="171" height="65" viewBox="0 0 171 65" fill="none" xmlns="http://www.w3.org/2000/svg">
<g clip-path="url(#clip0_6526_7335)">
<path fill-rule="evenodd" clip-rule="evenodd" d="M147.828 50.3896C147.828 51.3232 148.471 51.9818 149.372 51.9818C150.305 51.9818 150.932 51.3232 150.932 50.3896C150.932 49.4238 150.289 48.7811 149.388 48.7811C148.471 48.7811 147.828 49.44 147.828 50.3896ZM152.476 48.2921C152.476 50.9756 153.753 51.9818 155.43 51.9818C156.954 51.9818 157.738 51.1818 158.118 50.5958H158.155L158.276 51.7881H160.571C160.535 51.0767 160.503 50.1794 160.503 49.0881V43.3249H157.859V48.3608C157.859 48.5872 157.827 48.7771 157.775 48.9345C157.601 49.3832 157.16 49.848 156.445 49.848C155.483 49.848 155.119 49.0881 155.119 47.8597V43.3249H152.476V48.2921H152.476ZM162.067 49.3914C162.067 50.7615 163.089 51.9818 164.799 51.9818C165.801 51.9818 166.662 51.6183 167.215 50.9677H167.268L167.422 51.7881H169.794C169.705 51.2988 169.657 50.539 169.657 49.7228V46.7766C169.657 44.788 168.772 43.1309 165.955 43.1309C164.419 43.1309 163.259 43.547 162.673 43.8906L163.158 45.5679C163.728 45.2365 164.609 44.9252 165.47 44.9252C166.783 44.9252 167.026 45.5679 167.026 46.0166V46.1377C164.039 46.1377 162.067 47.1725 162.067 49.3913L162.067 49.3914ZM164.661 49.1245C164.661 48.1101 165.712 47.7786 167.11 47.7627V48.7245C167.11 48.8617 167.11 49.0397 167.062 49.1611C166.888 49.7026 166.351 50.1388 165.712 50.1388C165.11 50.1388 164.661 49.8074 164.661 49.1245Z" fill="#008237"/>
<path fill-rule="evenodd" clip-rule="evenodd" d="M33.5126 51.8609V41.8022H29.25V38.8984H41.0313V41.8022H36.7672V51.8609H33.5126Z" fill="#008237"/>
<path fill-rule="evenodd" clip-rule="evenodd" d="M49.383 42.8691C49.383 42.5455 49.3214 42.2633 49.1964 42.0285C49.0715 41.7946 48.758 41.6422 48.4672 41.5136C48.2655 41.4265 47.7912 41.3427 47.5414 41.3204C47.2915 41.2963 46.9818 41.2843 46.6101 41.2843H45.3404V44.7755H46.4544C46.9068 44.7755 47.2915 44.748 47.6063 44.6915C47.923 44.6366 48.5443 44.5206 48.7652 44.341C48.9737 44.1783 49.1295 43.9829 49.2304 43.7574C49.3315 43.5313 49.383 43.2352 49.383 42.869V42.8691ZM53.2524 51.8627H49.9717L47.3788 47.1102H45.3404V51.8627H42.6328V38.9004H47.4985C48.2173 38.9004 48.8454 38.9448 49.3794 39.0356C49.9131 39.1244 50.4061 39.3113 50.8582 39.5955C51.3235 39.8929 51.6915 40.2677 51.9636 40.723C52.2375 41.1799 52.3742 41.7583 52.3742 42.4604C52.3742 43.4528 52.1503 44.2589 51.7035 44.8768C51.2571 45.4944 50.6596 45.9857 49.9102 46.352L53.2524 51.8627V51.8627Z" fill="#008237"/>
<path fill-rule="evenodd" clip-rule="evenodd" d="M62.036 46.8654L60.7129 42.5901L59.3898 46.8654H62.036ZM54.6016 51.8629L58.9798 38.9004H62.5324L66.9117 51.8629H63.5591L62.7499 49.2152H58.6767L57.8654 51.8629H54.6016H54.6016Z" fill="#008237"/>
<path fill-rule="evenodd" clip-rule="evenodd" d="M78.2711 38.8984L73.8129 51.8607H70.4174L65.9609 38.8984H69.3373L72.1596 47.6831L74.9802 38.8984H78.2711Z" fill="#008237"/>
<path fill-rule="evenodd" clip-rule="evenodd" d="M92.9915 51.8609H89.7517V43.2678L87.1764 49.4307L85.4973 49.4238L82.8136 43.2678V51.8609H79.75V38.8984H83.012L86.375 45.296L89.9846 38.8984H92.9915V51.8609Z" fill="#008237"/>
<path fill-rule="evenodd" clip-rule="evenodd" d="M121.195 51.8609H117.957V43.2678L115.379 49.4307L113.702 49.4238L111.019 43.2678V51.8609H107.953V38.8984H111.215L114.578 45.296L118.19 38.8984H121.195V51.8609Z" fill="#008237"/>
<path fill-rule="evenodd" clip-rule="evenodd" d="M101.755 46.8654L100.432 42.5901L99.1085 46.8654H101.755ZM94.3203 51.8629L98.6998 38.9004H102.251L106.631 51.8629H103.28L102.469 49.2152H98.3951L97.5844 51.8629H94.3204H94.3203Z" fill="#008237"/>
<path fill-rule="evenodd" clip-rule="evenodd" d="M123.43 51.8609V38.8984H132.416V41.3697H126.669V44.1424H131.979V46.6172H126.669V49.3897H132.416V51.8609H123.43Z" fill="#008237"/>
<path fill-rule="evenodd" clip-rule="evenodd" d="M142.826 45.3898C142.884 42.9032 142.355 42.0952 141.746 41.7531C141.305 41.5101 140.843 41.3765 140.358 41.3546C139.874 41.3306 139.296 41.3183 138.621 41.3183H138.56V49.4323H138.621C139.352 49.4323 139.97 49.4185 140.471 49.3929C140.973 49.3673 141.45 49.2118 141.904 48.9273C142.436 48.5902 142.777 47.5379 142.826 45.3899V45.3898ZM145.941 45.3936C145.941 46.5998 145.715 48.6518 145.162 49.5951C144.813 50.1903 144.625 50.4866 143.819 50.9966C143.146 51.4313 142.682 51.5494 141.89 51.6743C141.098 51.7993 140.256 51.8604 139.362 51.8604H135.305V38.8984H139.326C140.237 38.8984 141.091 38.9565 141.886 39.073C142.681 39.1877 143.472 39.4065 144.123 39.9167C144.645 40.3258 145.941 41.197 145.941 45.3936Z" fill="#008237"/>
<path fill-rule="evenodd" clip-rule="evenodd" d="M0 25.9316C6.39926 32.7868 12.5847 32.4889 17.6772 27.3459C22.5736 22.4036 27.1164 10.5531 30.0231 4.32547C30.341 3.6464 31.7516 0.571872 32.4148 0C27.4944 18.5609 17.5352 44.9456 12.966 64.8296C9.65152 48.603 5.4376 37.858 0.177496 26.5887L0 25.9316Z" fill="#008237"/>
<path fill-rule="evenodd" clip-rule="evenodd" d="M17.679 19.4479C17.679 23.0285 14.818 25.9308 11.289 25.9308C7.75966 25.9308 4.89844 23.0285 4.89844 19.4479C4.89844 15.8677 7.75966 12.9648 11.289 12.9648C14.818 12.9648 17.679 15.8677 17.679 19.4479Z" fill="#009640"/>
<path d="M33.3115 64.8048C33.3115 64.8273 33.3044 64.8474 33.2904 64.8652C33.2773 64.883 33.2525 64.897 33.2182 64.9088C33.1837 64.9196 33.1377 64.929 33.0786 64.935C33.0193 64.9407 32.9462 64.9431 32.8597 64.9431C32.7723 64.9431 32.6989 64.9407 32.6399 64.935C32.5809 64.929 32.5346 64.9196 32.5003 64.9088C32.4661 64.897 32.4413 64.883 32.4258 64.8652C32.4104 64.8474 32.4033 64.8273 32.4033 64.8048V61.1968H30.7287V64.8048C30.7287 64.8273 30.7216 64.8474 30.7062 64.8652C30.691 64.883 30.6662 64.897 30.6317 64.9088C30.5974 64.9196 30.5514 64.929 30.4934 64.935C30.4366 64.9407 30.3622 64.9431 30.2733 64.9431C30.1858 64.9431 30.1125 64.9407 30.0535 64.935C29.9942 64.929 29.9482 64.9196 29.9139 64.9088C29.8794 64.897 29.8546 64.883 29.8418 64.8652C29.8277 64.8474 29.8203 64.8273 29.8203 64.8048V60.7248C29.8203 60.6277 29.8452 60.5557 29.8937 60.5083C29.9421 60.461 30.0061 60.4375 30.0864 60.4375H33.0476C33.1315 60.4375 33.1956 60.461 33.2415 60.5083C33.2875 60.5557 33.3113 60.6278 33.3113 60.7248V64.8048H33.3115Z" fill="#008237"/>
<path d="M38.3213 62.6276C38.3213 62.9987 38.275 63.3311 38.1828 63.6244C38.0907 63.9177 37.9535 64.1673 37.77 64.3706C37.588 64.5753 37.3622 64.7314 37.0939 64.839C36.8241 64.9468 36.513 64.9998 36.1595 64.9998C35.8105 64.9998 35.5066 64.9538 35.2477 64.8627C34.9874 64.7717 34.771 64.6334 34.5973 64.4452C34.4247 64.2583 34.2945 64.0208 34.2081 63.7322C34.1219 63.4436 34.0781 63.1017 34.0781 62.7068C34.0781 62.3451 34.1241 62.0186 34.2165 61.7288C34.3087 61.4392 34.4459 61.1929 34.6292 60.9896C34.8113 60.7862 35.0372 60.6302 35.3056 60.5225C35.5753 60.4138 35.8874 60.3594 36.2433 60.3594C36.5829 60.3594 36.8819 60.4041 37.1422 60.494C37.4012 60.5839 37.6187 60.7225 37.7927 60.9103C37.9676 61.0972 38.0991 61.3328 38.1877 61.6176C38.2764 61.9039 38.3213 62.2397 38.3213 62.6276ZM37.3633 62.6735C37.3633 62.4383 37.3445 62.2242 37.3079 62.0316C37.2711 61.8387 37.2087 61.673 37.1197 61.5361C37.0311 61.3988 36.9127 61.2925 36.765 61.2166C36.6171 61.1421 36.4326 61.1042 36.2114 61.1042C35.9879 61.1042 35.801 61.1468 35.6521 61.2307C35.5018 61.3149 35.38 61.4283 35.2877 61.5689C35.1955 61.7098 35.1307 61.8742 35.0928 62.0621C35.0549 62.2513 35.0358 62.4499 35.0358 62.6604C35.0358 62.9053 35.0549 63.1254 35.0915 63.3203C35.128 63.5155 35.1911 63.6823 35.2783 63.8218C35.3659 63.9602 35.4829 64.0654 35.6306 64.1386C35.7786 64.2108 35.9644 64.2476 36.1879 64.2476C36.4114 64.2476 36.5982 64.206 36.7472 64.1221C36.8972 64.0393 37.0192 63.9258 37.1113 63.7826C37.2035 63.6397 37.2686 63.4729 37.3065 63.2827C37.3444 63.0921 37.3632 62.8888 37.3632 62.6733L37.3633 62.6735Z" fill="#008237"/>
<path d="M42.1964 64.245C42.1964 64.3028 42.1954 64.3524 42.1918 64.393C42.1884 64.433 42.1824 64.4686 42.1753 64.497C42.1692 64.5263 42.1598 64.551 42.1481 64.5726C42.1363 64.5926 42.1185 64.6162 42.0924 64.6423C42.0676 64.6685 42.0179 64.7027 41.9458 64.7441C41.8726 64.7843 41.7837 64.8246 41.6784 64.8622C41.5734 64.8991 41.4539 64.9309 41.3191 64.9558C41.1841 64.9806 41.0375 64.9937 40.8802 64.9937C40.5741 64.9937 40.2973 64.9464 40.0501 64.8517C39.8028 64.7571 39.5924 64.6152 39.42 64.4271C39.2459 64.2391 39.1136 64.0049 39.0214 63.7224C38.9292 63.4409 38.8828 63.1134 38.8828 62.7396C38.8828 62.3587 38.9338 62.0205 39.0355 61.7249C39.1372 61.4291 39.2791 61.1808 39.4612 60.9798C39.6434 60.7788 39.8622 60.6275 40.1175 60.5235C40.3718 60.4195 40.6533 60.3672 40.9607 60.3672C41.0849 60.3672 41.2043 60.3778 41.3204 60.399C41.4362 60.4194 41.5425 60.4466 41.6408 60.4808C41.7388 60.514 41.8264 60.553 41.9056 60.5967C41.9837 60.6416 42.0394 60.6795 42.07 60.7104C42.1008 60.7422 42.122 60.7684 42.1337 60.7882C42.1458 60.8096 42.1552 60.8355 42.1612 60.8674C42.1682 60.9006 42.174 60.9385 42.1776 60.9821C42.1814 61.0261 42.1824 61.0791 42.1824 61.1442C42.1824 61.213 42.18 61.272 42.1753 61.3206C42.1706 61.369 42.1622 61.4079 42.1515 61.4374C42.1397 61.4672 42.1256 61.4895 42.1102 61.5025C42.0937 61.5168 42.0749 61.524 42.0546 61.524C42.0203 61.524 41.9767 61.5039 41.9234 61.4636C41.87 61.4233 41.8016 61.3784 41.7176 61.3287C41.6337 61.2791 41.5331 61.2341 41.416 61.1938C41.3003 61.1536 41.1618 61.1335 40.9997 61.1335C40.8225 61.1335 40.6641 61.1703 40.5245 61.2425C40.3849 61.3156 40.2665 61.4187 40.1685 61.5535C40.0702 61.6894 39.9957 61.8526 39.9448 62.0441C39.894 62.2347 39.8692 62.4511 39.8692 62.691C39.8692 62.9537 39.8964 63.1819 39.9507 63.3748C40.005 63.5665 40.0819 63.7259 40.1825 63.85C40.2818 63.9742 40.4036 64.0677 40.5456 64.1279C40.6875 64.1896 40.8472 64.2201 41.0244 64.2201C41.1854 64.2201 41.325 64.2013 41.4431 64.1634C41.5602 64.1257 41.6608 64.0831 41.7447 64.0381C41.8299 63.9919 41.8985 63.9506 41.9528 63.914C42.0074 63.8774 42.0485 63.8583 42.0793 63.8583C42.1017 63.8583 42.1209 63.863 42.1337 63.8724C42.148 63.8818 42.1598 63.8996 42.1692 63.9281C42.1776 63.9553 42.1846 63.9945 42.1893 64.0441C42.194 64.0948 42.1964 64.1613 42.1964 64.2452L42.1964 64.245Z" fill="#008237"/>
<path d="M45.8256 60.8113C45.8256 60.8787 45.8232 60.9355 45.8172 60.984C45.8113 61.0314 45.8031 61.069 45.7914 61.0975C45.7793 61.1271 45.7652 61.1484 45.7474 61.1612C45.7309 61.1753 45.7108 61.1824 45.6906 61.1824H44.5696V64.7978C44.5696 64.8202 44.5626 64.8417 44.5471 64.8605C44.5317 64.8782 44.5069 64.8937 44.4726 64.9054C44.4384 64.9162 44.3911 64.9255 44.3318 64.9326C44.2727 64.9397 44.1995 64.9433 44.1116 64.9433C44.0243 64.9433 43.9509 64.9396 43.8918 64.9326C43.8328 64.9255 43.7855 64.9162 43.7512 64.9054C43.7167 64.8937 43.6922 64.8782 43.6765 64.8605C43.6613 64.8417 43.6544 64.8202 43.6544 64.7978V61.1824H42.533C42.5105 61.1824 42.4904 61.1753 42.4739 61.1612C42.4586 61.1484 42.4443 61.127 42.4327 61.0975C42.422 61.069 42.4126 61.0314 42.4065 60.984C42.4005 60.9354 42.3984 60.8787 42.3984 60.8113C42.3984 60.7429 42.4005 60.6835 42.4065 60.6351C42.4125 60.5865 42.4219 60.5476 42.4327 60.5191C42.4444 60.4895 42.4586 60.4694 42.4739 60.4566C42.4904 60.4436 42.5105 60.4375 42.533 60.4375H45.6906C45.7107 60.4375 45.7296 60.4436 45.7474 60.4566C45.7652 60.4694 45.7793 60.4895 45.7914 60.5191C45.8031 60.5476 45.8113 60.5865 45.8172 60.6351C45.8232 60.6835 45.8256 60.7429 45.8256 60.8113Z" fill="#008237"/>
<path d="M49.5562 64.5825C49.5834 64.6653 49.6011 64.7315 49.6083 64.7798C49.6153 64.8284 49.6059 64.865 49.5811 64.8899C49.5549 64.9136 49.5099 64.9291 49.4449 64.9348C49.3811 64.9407 49.2912 64.9431 49.1789 64.9431C49.0607 64.9431 48.9684 64.9419 48.9033 64.9385C48.8372 64.9347 48.7875 64.9278 48.752 64.917C48.7178 64.9063 48.694 64.8921 48.6798 64.8733C48.6658 64.8555 48.6537 64.8307 48.6456 64.8012L48.351 63.9H46.66L46.3771 64.7764C46.368 64.8095 46.356 64.8367 46.3406 64.8579C46.3265 64.8804 46.3016 64.8969 46.2687 64.91C46.2355 64.9231 46.1879 64.9314 46.1265 64.9361C46.0651 64.9408 45.9846 64.9432 45.8853 64.9432C45.7789 64.9432 45.6961 64.9396 45.6357 64.9326C45.5756 64.9254 45.5342 64.909 45.5118 64.8829C45.488 64.8557 45.4799 64.8178 45.4867 64.7694C45.494 64.7208 45.5118 64.657 45.539 64.5753L46.9203 60.5961C46.9332 60.5568 46.9499 60.525 46.9687 60.5012C46.9865 60.4764 47.016 60.4587 47.0562 60.4458C47.0975 60.4327 47.1532 60.4243 47.2254 60.421C47.2962 60.4173 47.3908 60.416 47.5092 60.416C47.6452 60.416 47.7538 60.4173 47.8344 60.421C47.9159 60.4243 47.9786 60.4327 48.0236 60.4458C48.0686 60.4587 48.1004 60.4777 48.1206 60.5025C48.1397 60.5287 48.1572 60.5629 48.1703 60.6066L49.5564 64.5826L49.5562 64.5825ZM47.4984 61.2899H47.4947L46.8706 63.1977H48.1287L47.4983 61.2899H47.4984Z" fill="#008237"/>
<path d="M52.8167 64.8011C52.8167 64.8236 52.8096 64.8437 52.7941 64.8614C52.7788 64.8792 52.7552 64.8933 52.7221 64.9052C52.6878 64.9158 52.6439 64.9252 52.5871 64.9323C52.5304 64.9396 52.4583 64.943 52.3707 64.943C52.2855 64.943 52.2134 64.9396 52.1556 64.9323C52.0963 64.9252 52.0492 64.9158 52.0124 64.9052C51.9745 64.8933 51.9486 64.8792 51.9318 64.8614C51.9167 64.8437 51.9084 64.8236 51.9084 64.8011V63.2697C51.7856 63.2815 51.6658 63.2909 51.5476 63.2993C51.4293 63.3077 51.3101 63.3111 51.1907 63.3111C50.9421 63.3111 50.7176 63.2886 50.5153 63.2449C50.3129 63.201 50.1381 63.1241 49.9915 63.0145C49.8446 62.9055 49.7311 62.7541 49.6507 62.5635C49.5717 62.3733 49.5312 62.132 49.5312 61.841V60.558C49.5312 60.5355 49.5385 60.5154 49.5527 60.4977C49.5657 60.4799 49.5893 60.4657 49.6235 60.4537C49.6567 60.4422 49.7017 60.4338 49.7584 60.4268C49.8152 60.4197 49.8862 60.4161 49.9714 60.4161C50.06 60.4161 50.1335 60.4197 50.1912 60.4268C50.2503 60.4339 50.299 60.4422 50.3355 60.4537C50.3724 60.4657 50.3995 60.4799 50.4148 60.4977C50.4315 60.5141 50.4396 60.5342 50.4396 60.558V61.7488C50.4396 61.887 50.454 62.0077 50.4835 62.1094C50.5117 62.2101 50.5604 62.2953 50.6278 62.3614C50.6939 62.4288 50.7828 62.4796 50.8926 62.5138C51.0026 62.5483 51.1399 62.5661 51.3043 62.5661C51.4083 62.5661 51.51 62.5624 51.6093 62.5541C51.7099 62.546 51.8092 62.5366 51.9085 62.5245V60.5579C51.9085 60.5342 51.9169 60.514 51.932 60.4976C51.9488 60.4798 51.9746 60.4657 52.0125 60.4536C52.0494 60.4421 52.0964 60.4337 52.1558 60.4267C52.2136 60.4196 52.2857 60.416 52.3709 60.416C52.4584 60.416 52.5306 60.4197 52.5873 60.4267C52.6441 60.4338 52.688 60.4421 52.7222 60.4536C52.7554 60.4657 52.7789 60.4798 52.7943 60.4976C52.8098 60.5154 52.8168 60.5354 52.8168 60.5579V64.8011L52.8167 64.8011Z" fill="#008237"/>
<path d="M57.4624 64.5825C57.4895 64.6653 57.5073 64.7315 57.5144 64.7798C57.5215 64.8284 57.512 64.865 57.4872 64.8899C57.461 64.9136 57.4161 64.9291 57.3511 64.9348C57.2873 64.9407 57.1973 64.9431 57.0849 64.9431C56.9669 64.9431 56.8746 64.9419 56.8095 64.9385C56.7434 64.9347 56.6937 64.9278 56.6582 64.917C56.6238 64.9063 56.6001 64.8921 56.586 64.8733C56.5719 64.8555 56.5598 64.8307 56.5517 64.8012L56.2572 63.9H54.5661L54.2836 64.7764C54.2742 64.8095 54.2621 64.8367 54.2467 64.8579C54.2326 64.8804 54.2078 64.8969 54.1748 64.91C54.1417 64.9231 54.0941 64.9314 54.0327 64.9361C53.9712 64.9408 53.8908 64.9432 53.7914 64.9432C53.685 64.9432 53.6024 64.9396 53.5421 64.9326C53.4818 64.9254 53.4404 64.909 53.4179 64.8829C53.3942 64.8557 53.386 64.8178 53.3931 64.7694C53.4002 64.7208 53.4179 64.657 53.4451 64.5753L54.8265 60.5961C54.8393 60.5568 54.8561 60.525 54.8749 60.5012C54.8926 60.4764 54.9222 60.4587 54.9624 60.4458C55.0037 60.4327 55.0594 60.4243 55.1315 60.421C55.2024 60.4173 55.297 60.416 55.4154 60.416C55.5512 60.416 55.6603 60.4173 55.7405 60.421C55.822 60.4243 55.8848 60.4327 55.9298 60.4458C55.9747 60.4587 56.0066 60.4777 56.0267 60.5025C56.0458 60.5287 56.0633 60.5629 56.0764 60.6066L57.4625 64.5826L57.4624 64.5825ZM55.4045 61.2899H55.4008L54.7767 63.1977H56.0349L55.4044 61.2899H55.4045Z" fill="#008237"/>
<path d="M61.5786 64.8048C61.5786 64.8273 61.5716 64.8474 61.5572 64.8652C61.5444 64.883 61.5195 64.897 61.4853 64.9088C61.4509 64.9196 61.4035 64.929 61.3444 64.935C61.2854 64.9407 61.212 64.9431 61.1246 64.9431C61.0347 64.9431 60.9602 64.9407 60.9022 64.935C60.8453 64.929 60.7982 64.9196 60.7637 64.9088C60.7294 64.897 60.7046 64.883 60.6915 64.8652C60.6774 64.8474 60.6703 64.8273 60.6703 64.8048V61.1824H59.7124C59.6473 61.7123 59.5812 62.1746 59.5138 62.5709C59.4474 62.9658 59.3755 63.3053 59.2984 63.5868C59.2228 63.8694 59.1376 64.1012 59.0467 64.2808C58.9554 64.4619 58.8503 64.6049 58.7343 64.7102C58.6172 64.8156 58.4848 64.8876 58.3371 64.9266C58.1904 64.9656 58.0223 64.9857 57.8358 64.9857C57.8003 64.9857 57.7707 64.981 57.7446 64.9716C57.7197 64.9632 57.6996 64.9454 57.6842 64.9196C57.6688 64.8947 57.6583 64.8592 57.6513 64.8132C57.644 64.7669 57.6406 64.7078 57.6406 64.637C57.6406 64.5374 57.643 64.4571 57.6477 64.3955C57.6524 64.3353 57.6608 64.288 57.6715 64.2549C57.6833 64.2206 57.6984 64.1982 57.7175 64.1875C57.7352 64.1757 57.7578 64.1697 57.7836 64.1697C57.8547 64.1697 57.9245 64.1556 57.9896 64.126C58.0557 64.0976 58.1198 64.0408 58.1813 63.9546C58.2427 63.8694 58.3017 63.7489 58.3587 63.5939C58.4155 63.4389 58.4708 63.2355 58.5252 62.9813C58.5798 62.7283 58.6341 62.4195 58.6885 62.0552C58.7429 61.691 58.7985 61.2582 58.854 60.7567C58.8683 60.6385 58.8953 60.5557 58.9368 60.5083C58.9781 60.461 59.0398 60.4375 59.12 60.4375H61.3185C61.4026 60.4375 61.4664 60.461 61.5114 60.5083C61.5563 60.5557 61.5788 60.6278 61.5788 60.7248V64.8048H61.5786Z" fill="#008237"/>
<path d="M65.8543 63.4354C65.8543 63.6482 65.8224 63.8434 65.7583 64.0209C65.6956 64.1994 65.5929 64.3542 65.451 64.4867C65.308 64.6205 65.1235 64.7256 64.894 64.8037C64.6658 64.8829 64.3525 64.9219 63.9549 64.9219H62.8352C62.796 64.9219 62.7594 64.9171 62.7262 64.9065C62.693 64.8961 62.6638 64.8783 62.6376 64.8544C62.6127 64.8296 62.5926 64.8001 62.5772 64.7645C62.5618 64.7279 62.5547 64.6852 62.5547 64.6346V60.5545C62.5547 60.5321 62.5618 60.5119 62.5772 60.4942C62.5926 60.4764 62.6175 60.4623 62.653 60.4505C62.6886 60.4399 62.7356 60.4305 62.7949 60.4243C62.8541 60.4187 62.9249 60.416 63.0114 60.416C63.1 60.416 63.1745 60.4186 63.2312 60.4243C63.2893 60.4304 63.3352 60.4398 63.3698 60.4505C63.404 60.4623 63.4288 60.4764 63.4416 60.4942C63.456 60.5119 63.4631 60.5321 63.4631 60.5545V62.0836H64.0909C64.4316 62.0836 64.7025 62.1131 64.9035 62.1725C65.1045 62.2315 65.2748 62.3178 65.4155 62.4336C65.5551 62.5497 65.6641 62.6915 65.7396 62.8596C65.8165 63.0285 65.8543 63.2203 65.8543 63.4354H65.8543ZM64.9175 63.511C64.9175 63.3989 64.901 63.2982 64.8691 63.2107C64.836 63.1233 64.7863 63.0486 64.7201 62.9859C64.6527 62.9244 64.5665 62.8771 64.4612 62.8429C64.3558 62.8097 64.1988 62.7932 63.9905 62.7932H63.463V64.2122H64.0082C64.2257 64.2122 64.3878 64.191 64.4954 64.1484C64.6032 64.1058 64.6871 64.0504 64.7474 63.983C64.8078 63.9145 64.8514 63.8397 64.8776 63.7571C64.9048 63.6743 64.9176 63.5915 64.9176 63.511H64.9175Z" fill="#008237"/>
<path d="M69.9749 64.7976C69.9749 64.8202 69.9678 64.8413 69.9525 64.8604C69.9371 64.8782 69.9122 64.8933 69.8779 64.9054C69.8436 64.9158 69.7974 64.9254 69.7396 64.9326C69.6829 64.9396 69.6094 64.943 69.5232 64.943C69.4333 64.943 69.3588 64.9396 69.2997 64.9326C69.2404 64.9254 69.1954 64.9158 69.1611 64.9054C69.128 64.8933 69.1044 64.8782 69.0891 64.8604C69.0736 64.8413 69.0665 64.8202 69.0665 64.7976V62.9848H67.3849V64.7976C67.3849 64.8202 67.3778 64.8413 67.3637 64.8604C67.3506 64.8782 67.3258 64.8933 67.2916 64.9054C67.2571 64.9158 67.211 64.9254 67.153 64.9326C67.0963 64.9396 67.0218 64.943 66.9332 64.943C66.8457 64.943 66.7724 64.9396 66.7131 64.9326C66.6541 64.9254 66.6078 64.9158 66.5738 64.9054C66.5393 64.8933 66.5145 64.8782 66.4991 64.8604C66.4837 64.8413 66.4766 64.8202 66.4766 64.7976V60.5616C66.4766 60.5391 66.4837 60.5176 66.4991 60.4988C66.5145 60.481 66.5393 60.4656 66.5738 60.4538C66.6078 60.442 66.6541 60.4337 66.7131 60.4267C66.7724 60.4196 66.8456 60.416 66.9332 60.416C67.0218 60.416 67.0963 60.4197 67.153 60.4267C67.211 60.4337 67.257 60.4431 67.2916 60.4538C67.3258 60.4656 67.3506 60.481 67.3637 60.4988C67.3778 60.5176 67.3849 60.5391 67.3849 60.5616V62.2113H69.0665V60.5616C69.0665 60.5391 69.0736 60.5176 69.0891 60.4988C69.1044 60.481 69.128 60.4656 69.1611 60.4538C69.1954 60.4431 69.2404 60.4337 69.2997 60.4267C69.3588 60.4196 69.4333 60.416 69.5232 60.416C69.6094 60.416 69.6829 60.4197 69.7396 60.4267C69.7974 60.4337 69.8436 60.442 69.8779 60.4538C69.9122 60.4656 69.937 60.481 69.9525 60.4988C69.9678 60.5176 69.9749 60.5391 69.9749 60.5616V64.7976Z" fill="#008237"/>
<path d="M74.6004 64.8048C74.6004 64.8272 74.5932 64.8474 74.5779 64.8652C74.5626 64.8829 74.5377 64.897 74.5034 64.9088C74.469 64.9195 74.4216 64.9289 74.3628 64.935C74.3035 64.9406 74.2301 64.9431 74.1427 64.9431C74.0552 64.9431 73.982 64.9406 73.9226 64.935C73.8636 64.929 73.8173 64.9196 73.7841 64.9088C73.7501 64.897 73.7263 64.8829 73.7132 64.8652C73.6992 64.8474 73.692 64.8272 73.692 64.8048V62.4406C73.692 62.3508 73.6933 62.2621 73.6954 62.1758C73.6978 62.0884 73.7014 62.0115 73.7061 61.9454H73.6991C73.6803 61.9772 73.6588 62.0149 73.6329 62.0574C73.6067 62.1 73.5796 62.145 73.5511 62.1924C73.5215 62.2397 73.491 62.2882 73.4589 62.3379C73.426 62.3876 73.394 62.436 73.3621 62.4822L71.8046 64.8082C71.7855 64.8332 71.7667 64.8555 71.7476 64.8732C71.7276 64.8923 71.7027 64.9064 71.6708 64.9172C71.6402 64.9278 71.6024 64.935 71.5574 64.9384C71.5124 64.9421 71.4534 64.9431 71.3822 64.9431C71.2924 64.9431 71.2192 64.9406 71.1648 64.935C71.1092 64.929 71.0655 64.9196 71.0347 64.9088C71.0028 64.897 70.9813 64.8816 70.9709 64.8638C70.9591 64.845 70.9531 64.8226 70.9531 64.7977V60.5546C70.9531 60.5318 70.9602 60.512 70.9756 60.4942C70.991 60.4764 71.0159 60.4623 71.0514 60.4503C71.0867 60.4399 71.134 60.4304 71.192 60.4244C71.2488 60.4184 71.3222 60.416 71.4094 60.416C71.4984 60.416 71.5728 60.4184 71.6296 60.4244C71.6876 60.4304 71.7336 60.4398 71.7678 60.4503C71.8021 60.4623 71.8269 60.4764 71.84 60.4942C71.8544 60.512 71.8614 60.5319 71.8614 60.5546V62.9328C71.8614 63.006 71.8601 63.0852 71.8578 63.168C71.8554 63.2519 71.8517 63.3324 71.8473 63.4106H71.8544C71.8944 63.3419 71.9441 63.2579 72.0044 63.161C72.0648 63.064 72.1275 62.9694 72.1913 62.8772L73.7511 60.5509C73.7679 60.5285 73.784 60.5084 73.8033 60.4906C73.8221 60.4731 73.847 60.4587 73.8776 60.4469C73.9084 60.4363 73.9473 60.4279 73.9937 60.4232C74.0396 60.4185 74.0987 60.4161 74.1711 60.4161C74.2584 60.4161 74.3292 60.4185 74.3838 60.4245C74.4382 60.4305 74.4808 60.4399 74.5138 60.4503C74.5459 60.4624 74.5681 60.4765 74.5812 60.4943C74.5942 60.5121 74.6002 60.5332 74.6002 60.5581V64.8049L74.6004 64.8048Z" fill="#008237"/>
<path d="M78.899 64.8011C78.899 64.8259 78.8919 64.8473 78.8778 64.8651C78.8647 64.8829 78.8399 64.8969 78.8033 64.9087C78.7677 64.9194 78.7191 64.9288 78.659 64.9346C78.5987 64.9406 78.5218 64.943 78.4272 64.943C78.3266 64.943 78.2463 64.9406 78.1859 64.9346C78.1242 64.9289 78.0745 64.9194 78.038 64.9064C78.0003 64.8933 77.9729 64.8769 77.954 64.8544C77.9362 64.8331 77.9222 64.8057 77.9125 64.7729L77.552 63.7733C77.5011 63.6266 77.448 63.5048 77.3924 63.4069C77.3368 63.3086 77.2753 63.2281 77.2078 63.1667C77.1417 63.1063 77.0646 63.0627 76.9797 63.0368C76.8932 63.012 76.7975 62.9987 76.6911 62.9987H76.4865V64.7977C76.4865 64.8226 76.4794 64.8437 76.465 64.8614C76.4522 64.8792 76.4273 64.8933 76.3931 64.9064C76.3586 64.9195 76.3127 64.9289 76.2546 64.9346C76.1978 64.9406 76.1234 64.943 76.0345 64.943C75.9472 64.943 75.8738 64.9406 75.8147 64.9346C75.7556 64.9289 75.7094 64.9194 75.6751 64.9064C75.6408 64.8933 75.616 64.8792 75.6006 64.8614C75.5852 64.8437 75.5781 64.8225 75.5781 64.7977V60.558C75.5781 60.5332 75.5852 60.5117 75.6006 60.4939C75.616 60.4764 75.6408 60.4621 75.6751 60.4503C75.7094 60.4396 75.7556 60.4302 75.8147 60.4244C75.8738 60.4184 75.9472 60.416 76.0345 60.416C76.1234 60.416 76.1978 60.4184 76.2546 60.4244C76.3127 60.4301 76.3586 60.4385 76.3931 60.4503C76.4274 60.4621 76.4522 60.4764 76.465 60.4939C76.4794 60.5107 76.4865 60.5318 76.4865 60.558V62.2396H76.6911C76.7951 62.2396 76.8872 62.2252 76.9653 62.198C77.0447 62.1698 77.1155 62.126 77.1794 62.0668C77.2434 62.0067 77.3012 61.9286 77.3532 61.8327C77.4054 61.737 77.4552 61.6186 77.5048 61.478L77.8061 60.5851C77.8182 60.5533 77.831 60.5261 77.8477 60.5046C77.8642 60.4822 77.8902 60.4644 77.9258 60.4526C77.9611 60.4396 78.0084 60.4301 78.0675 60.4244C78.1255 60.4184 78.2047 60.416 78.304 60.416C78.3939 60.416 78.4684 60.4184 78.5264 60.4244C78.5855 60.4301 78.6318 60.4385 78.6647 60.4493C78.6992 60.4597 78.7215 60.4728 78.7321 60.4905C78.7439 60.5083 78.7499 60.5295 78.7499 60.5543C78.7499 60.5839 78.7452 60.6217 78.7345 60.6654C78.7241 60.7093 78.7063 60.7673 78.6802 60.8381L78.3799 61.634C78.3242 61.782 78.2688 61.9085 78.2131 62.0112C78.1575 62.1156 78.0994 62.2042 78.038 62.2763C77.9776 62.3498 77.9125 62.4088 77.844 62.4549C77.7766 62.5011 77.701 62.5387 77.6182 62.5695V62.5719C77.7104 62.6122 77.7944 62.6561 77.8689 62.7058C77.9447 62.7565 78.0155 62.8192 78.0819 62.8947C78.1467 62.9716 78.2107 63.0652 78.2711 63.1762C78.3302 63.2876 78.3917 63.4235 78.4543 63.5855L78.8222 64.5163C78.86 64.6109 78.8812 64.676 78.8886 64.7127C78.8956 64.7482 78.899 64.7775 78.899 64.8013V64.8011Z" fill="#008237"/>
<path d="M82.0951 64.7976C82.0951 64.8202 82.0881 64.8413 82.0726 64.8604C82.0572 64.8782 82.0324 64.8933 81.9981 64.9054C81.9639 64.9158 81.9166 64.9254 81.8598 64.9326C81.8018 64.9396 81.7273 64.943 81.6375 64.943C81.5499 64.943 81.4767 64.9396 81.4176 64.9326C81.3583 64.9254 81.311 64.9158 81.2767 64.9054C81.2425 64.8933 81.2177 64.8782 81.2022 64.8604C81.1868 64.8413 81.1797 64.8202 81.1797 64.7976V60.5616C81.1797 60.5391 81.1868 60.5176 81.2022 60.4988C81.2176 60.481 81.2425 60.4656 81.279 60.4538C81.3146 60.442 81.3606 60.4337 81.4186 60.4267C81.4767 60.4196 81.5498 60.416 81.6375 60.416C81.7273 60.416 81.8018 60.4197 81.8598 60.4267C81.9166 60.4337 81.9639 60.442 81.9981 60.4538C82.0324 60.4656 82.0571 60.481 82.0726 60.4988C82.0881 60.5176 82.0951 60.5391 82.0951 60.5616V64.7976Z" fill="#008237"/>
<path d="M88.2925 64.7978C88.2925 64.8203 88.2865 64.8414 88.2737 64.8605C88.2606 64.8783 88.2371 64.8934 88.204 64.9055C88.171 64.9159 88.1258 64.9256 88.0704 64.9327C88.0147 64.9398 87.9436 64.9431 87.8586 64.9431C87.7747 64.9431 87.7049 64.9397 87.6493 64.9327C87.5936 64.9256 87.55 64.9159 87.5168 64.9055C87.485 64.8935 87.4614 64.8783 87.4484 64.8605C87.434 64.8414 87.4269 64.8203 87.4269 64.7978V61.1469H87.4198L86.125 64.7942C86.1152 64.8239 86.1012 64.8486 86.08 64.8687C86.0585 64.8888 86.0314 64.9043 85.9948 64.916C85.9592 64.9266 85.9132 64.935 85.8588 64.9384C85.8032 64.9422 85.7358 64.9432 85.6579 64.9432C85.5784 64.9432 85.5123 64.9408 85.4566 64.935C85.4012 64.929 85.3549 64.9196 85.3197 64.9066C85.2841 64.8935 85.2556 64.8784 85.2344 64.8606C85.2143 64.8415 85.2 64.8191 85.1929 64.7942L83.943 61.1469H83.9359V64.7978C83.9359 64.8203 83.9298 64.8414 83.9168 64.8605C83.904 64.8783 83.8802 64.8934 83.8459 64.9055C83.8104 64.9159 83.7654 64.9256 83.7111 64.9327C83.6567 64.9398 83.5869 64.9431 83.5017 64.9431C83.4178 64.9431 83.3481 64.9397 83.2924 64.9327C83.237 64.9256 83.1921 64.9159 83.1589 64.9055C83.1256 64.8935 83.1021 64.8783 83.0891 64.8605C83.076 64.8414 83.0703 64.8203 83.0703 64.7978V60.8017C83.0703 60.6836 83.1008 60.5936 83.1636 60.5309C83.2264 60.4682 83.3092 60.4376 83.4143 60.4376H84.0105C84.1169 60.4376 84.2091 60.4457 84.2847 60.4634C84.3615 60.4812 84.4279 60.5097 84.4833 60.5497C84.5379 60.5902 84.5852 60.6433 84.6218 60.7094C84.6584 60.7758 84.6916 60.8573 84.7188 60.9542L85.6849 63.6258H85.6993L86.6998 60.9602C86.7294 60.8633 86.7622 60.7814 86.7978 60.714C86.8347 60.6479 86.876 60.5936 86.9233 60.552C86.9706 60.5107 87.0274 60.4812 87.0911 60.4634C87.1561 60.4456 87.232 60.4375 87.3169 60.4375H87.9318C87.9946 60.4375 88.0477 60.4456 88.0929 60.4624C88.1376 60.4776 88.1754 60.5014 88.204 60.5332C88.2336 60.564 88.2547 60.6019 88.2701 60.6469C88.2855 60.6916 88.2927 60.7439 88.2927 60.8017V64.7978H88.2925Z" fill="#008237"/>
<path d="M92.7645 64.8048C92.7645 64.8273 92.7574 64.8474 92.7433 64.8652C92.7302 64.883 92.7054 64.897 92.6711 64.9088C92.6366 64.9196 92.5906 64.929 92.5316 64.935C92.4722 64.9407 92.3991 64.9431 92.3125 64.9431C92.2252 64.9431 92.1518 64.9407 92.0927 64.935C92.0337 64.929 91.9875 64.9196 91.9532 64.9088C91.9189 64.897 91.8941 64.883 91.8786 64.8652C91.8632 64.8474 91.8562 64.8273 91.8562 64.8048V61.1968H90.1815V64.8048C90.1815 64.8273 90.1744 64.8474 90.1591 64.8652C90.1438 64.883 90.119 64.897 90.0846 64.9088C90.0502 64.9196 90.0043 64.929 89.9462 64.935C89.8895 64.9407 89.815 64.9431 89.7262 64.9431C89.6386 64.9431 89.5654 64.9407 89.5063 64.935C89.447 64.929 89.401 64.9196 89.3667 64.9088C89.3322 64.897 89.3074 64.883 89.2946 64.8652C89.2805 64.8474 89.2734 64.8273 89.2734 64.8048V60.7248C89.2734 60.6277 89.2983 60.5557 89.3466 60.5083C89.3952 60.461 89.459 60.4375 89.5393 60.4375H92.5005C92.5845 60.4375 92.6483 60.461 92.6945 60.5083C92.7407 60.5557 92.7642 60.6278 92.7642 60.7248V64.8048H92.7645Z" fill="#008237"/>
<path d="M97.2271 64.8048C97.2271 64.8273 97.2199 64.8474 97.2056 64.8652C97.1928 64.883 97.1679 64.897 97.1337 64.9088C97.0992 64.9196 97.0519 64.929 96.9929 64.935C96.9338 64.9407 96.8603 64.9431 96.773 64.9431C96.6828 64.9431 96.6087 64.9407 96.5506 64.935C96.4939 64.929 96.4466 64.9196 96.4124 64.9088C96.3779 64.897 96.353 64.883 96.3399 64.8652C96.3258 64.8474 96.3188 64.8273 96.3188 64.8048V61.1824H95.3608C95.2957 61.7123 95.2296 62.1746 95.1621 62.5709C95.0957 62.9658 95.0239 63.3053 94.9467 63.5868C94.8712 63.8694 94.786 64.1012 94.695 64.2808C94.6039 64.4619 94.4988 64.6049 94.3827 64.7102C94.2656 64.8156 94.1331 64.8876 93.9855 64.9266C93.8388 64.9656 93.6708 64.9857 93.4842 64.9857C93.4486 64.9857 93.4192 64.981 93.393 64.9716C93.3681 64.9632 93.348 64.9454 93.3329 64.9196C93.3175 64.8947 93.3068 64.8592 93.2997 64.8132C93.2926 64.7669 93.2891 64.7078 93.2891 64.637C93.2891 64.5374 93.2914 64.4571 93.2961 64.3955C93.3008 64.3353 93.3092 64.288 93.3199 64.2549C93.3317 64.2206 93.3471 64.1982 93.3659 64.1875C93.3837 64.1757 93.4061 64.1697 93.432 64.1697C93.5031 64.1697 93.5729 64.1556 93.638 64.126C93.7042 64.0976 93.7682 64.0408 93.8296 63.9546C93.8911 63.8694 93.9501 63.7489 94.0071 63.5939C94.0638 63.4389 94.1192 63.2355 94.1736 62.9813C94.2282 62.7283 94.2826 62.4195 94.337 62.0552C94.3913 61.691 94.4469 61.2582 94.5024 60.7567C94.5168 60.6385 94.5437 60.5557 94.5852 60.5083C94.6265 60.461 94.6882 60.4375 94.7685 60.4375H96.9668C97.051 60.4375 97.1148 60.461 97.1598 60.5083C97.2047 60.5557 97.2272 60.6278 97.2272 60.7248V64.8048H97.2271Z" fill="#008237"/>
<path d="M101.876 64.5825C101.904 64.6653 101.921 64.7315 101.928 64.7798C101.935 64.8284 101.926 64.865 101.901 64.8899C101.875 64.9136 101.83 64.9291 101.765 64.9348C101.701 64.9407 101.611 64.9431 101.499 64.9431C101.381 64.9431 101.289 64.9419 101.223 64.9385C101.157 64.9347 101.108 64.9278 101.072 64.917C101.038 64.9063 101.014 64.8921 101 64.8733C100.986 64.8555 100.974 64.8307 100.966 64.8012L100.671 63.9H98.9801L98.6975 64.7764C98.6881 64.8095 98.6761 64.8367 98.6606 64.8579C98.6466 64.8804 98.6217 64.8969 98.5888 64.91C98.5556 64.9231 98.508 64.9314 98.4466 64.9361C98.3852 64.9408 98.3047 64.9432 98.2054 64.9432C98.099 64.9432 98.0162 64.9396 97.9559 64.9326C97.8957 64.9254 97.8544 64.909 97.832 64.8829C97.8082 64.8557 97.8001 64.8178 97.8071 64.7694C97.8142 64.7208 97.832 64.657 97.8592 64.5753L99.2404 60.5961C99.2533 60.5568 99.27 60.525 99.2888 60.5012C99.3066 60.4764 99.3361 60.4587 99.3764 60.4458C99.4176 60.4327 99.4733 60.4243 99.5455 60.421C99.6163 60.4173 99.7109 60.416 99.8293 60.416C99.9653 60.416 100.074 60.4173 100.154 60.421C100.236 60.4243 100.299 60.4327 100.344 60.4458C100.389 60.4587 100.421 60.4777 100.441 60.5025C100.46 60.5287 100.477 60.5629 100.49 60.6066L101.876 64.5826L101.876 64.5825ZM99.8185 61.2899H99.8148L99.1906 63.1977H100.449L99.8184 61.2899H99.8185Z" fill="#008237"/>
<path d="M105.998 64.7976C105.998 64.8202 105.991 64.8413 105.976 64.8604C105.96 64.8782 105.936 64.8933 105.901 64.9054C105.867 64.9158 105.821 64.9254 105.763 64.9326C105.706 64.9396 105.633 64.943 105.547 64.943C105.457 64.943 105.382 64.9396 105.323 64.9326C105.264 64.9254 105.219 64.9158 105.185 64.9054C105.151 64.8933 105.128 64.8782 105.112 64.8604C105.097 64.8413 105.09 64.8202 105.09 64.7976V62.9848H103.408V64.7976C103.408 64.8202 103.401 64.8413 103.387 64.8604C103.374 64.8782 103.349 64.8933 103.315 64.9054C103.281 64.9158 103.235 64.9254 103.177 64.9326C103.12 64.9396 103.045 64.943 102.957 64.943C102.869 64.943 102.796 64.9396 102.737 64.9326C102.677 64.9254 102.631 64.9158 102.597 64.9054C102.563 64.8933 102.538 64.8782 102.522 64.8604C102.507 64.8413 102.5 64.8202 102.5 64.7976V60.5616C102.5 60.5391 102.507 60.5176 102.522 60.4988C102.538 60.481 102.563 60.4656 102.597 60.4538C102.631 60.442 102.677 60.4337 102.737 60.4267C102.796 60.4196 102.869 60.416 102.957 60.416C103.045 60.416 103.12 60.4197 103.177 60.4267C103.235 60.4337 103.281 60.4431 103.315 60.4538C103.349 60.4656 103.374 60.481 103.387 60.4988C103.401 60.5176 103.408 60.5391 103.408 60.5616V62.2113H105.09V60.5616C105.09 60.5391 105.097 60.5176 105.112 60.4988C105.128 60.481 105.151 60.4656 105.185 60.4538C105.219 60.4431 105.264 60.4337 105.323 60.4267C105.382 60.4196 105.457 60.416 105.547 60.416C105.633 60.416 105.706 60.4197 105.763 60.4267C105.821 60.4337 105.867 60.442 105.901 60.4538C105.936 60.4656 105.96 60.481 105.976 60.4988C105.991 60.5176 105.998 60.5391 105.998 60.5616V64.7976Z" fill="#008237"/>
<path d="M109.959 60.8113C109.959 60.8787 109.956 60.9355 109.95 60.984C109.944 61.0314 109.936 61.069 109.924 61.0975C109.912 61.1271 109.898 61.1484 109.88 61.1612C109.864 61.1753 109.844 61.1824 109.824 61.1824H108.703V64.7978C108.703 64.8202 108.695 64.8417 108.68 64.8605C108.665 64.8782 108.64 64.8937 108.606 64.9054C108.571 64.9162 108.524 64.9255 108.465 64.9326C108.406 64.9397 108.332 64.9433 108.245 64.9433C108.157 64.9433 108.084 64.9396 108.025 64.9326C107.966 64.9255 107.918 64.9162 107.884 64.9054C107.85 64.8937 107.825 64.8782 107.809 64.8605C107.794 64.8417 107.787 64.8202 107.787 64.7978V61.1824H106.666C106.643 61.1824 106.624 61.1753 106.607 61.1612C106.592 61.1484 106.577 61.127 106.566 61.0975C106.555 61.069 106.545 61.0314 106.539 60.984C106.533 60.9354 106.531 60.8787 106.531 60.8113C106.531 60.7429 106.533 60.6835 106.539 60.6351C106.545 60.5865 106.555 60.5476 106.566 60.5191C106.577 60.4895 106.592 60.4694 106.607 60.4566C106.624 60.4436 106.643 60.4375 106.666 60.4375H109.824C109.844 60.4375 109.863 60.4436 109.88 60.4566C109.898 60.4694 109.912 60.4895 109.924 60.5191C109.936 60.5476 109.944 60.5865 109.95 60.6351C109.956 60.6835 109.959 60.7429 109.959 60.8113Z" fill="#008237"/>
<path d="M111.408 64.7976C111.408 64.8202 111.4 64.8413 111.385 64.8604C111.37 64.8782 111.345 64.8933 111.311 64.9054C111.276 64.9158 111.229 64.9254 111.172 64.9326C111.114 64.9396 111.04 64.943 110.95 64.943C110.862 64.943 110.789 64.9396 110.73 64.9326C110.671 64.9254 110.623 64.9158 110.589 64.9054C110.555 64.8933 110.53 64.8782 110.515 64.8604C110.499 64.8413 110.492 64.8202 110.492 64.7976V60.5616C110.492 60.5391 110.499 60.5176 110.515 60.4988C110.53 60.481 110.555 60.4656 110.592 60.4538C110.627 60.442 110.673 60.4337 110.731 60.4267C110.789 60.4196 110.862 60.416 110.95 60.416C111.04 60.416 111.114 60.4197 111.172 60.4267C111.229 60.4337 111.276 60.442 111.311 60.4538C111.345 60.4656 111.37 60.481 111.385 60.4988C111.4 60.5176 111.408 60.5391 111.408 60.5616V64.7976Z" fill="#008237"/>
<path d="M115.626 63.5761C115.626 63.7358 115.603 63.8801 115.56 64.0099C115.516 64.1388 115.455 64.2539 115.378 64.3529C115.301 64.4522 115.208 64.5374 115.102 64.6096C114.994 64.6817 114.876 64.7397 114.747 64.787C114.618 64.8333 114.48 64.8675 114.333 64.8887C114.186 64.9112 114.023 64.9219 113.843 64.9219H112.653C112.577 64.9219 112.513 64.8994 112.461 64.8545C112.409 64.8095 112.383 64.7363 112.383 64.6343V60.7248C112.383 60.623 112.409 60.5496 112.461 60.5049C112.513 60.4596 112.577 60.4375 112.653 60.4375H113.776C114.05 60.4375 114.282 60.461 114.473 60.507C114.663 60.5532 114.823 60.6231 114.953 60.7164C115.084 60.81 115.183 60.928 115.252 61.0713C115.322 61.2143 115.356 61.3824 115.356 61.576C115.356 61.685 115.342 61.7867 115.315 61.8823C115.287 61.9783 115.246 62.0659 115.194 62.1437C115.141 62.2231 115.076 62.2917 114.998 62.3521C114.921 62.4123 114.833 62.4607 114.734 62.4976C114.861 62.5211 114.979 62.5613 115.086 62.6193C115.194 62.6771 115.287 62.7516 115.367 62.8429C115.447 62.9338 115.51 63.0415 115.556 63.1633C115.602 63.2861 115.626 63.4234 115.626 63.576L115.626 63.5761ZM114.448 61.6862C114.448 61.5965 114.434 61.516 114.406 61.4439C114.379 61.3728 114.338 61.3127 114.282 61.2653C114.227 61.218 114.157 61.1825 114.073 61.1567C113.989 61.1318 113.876 61.1187 113.736 61.1187H113.277V62.2824H113.784C113.915 62.2824 114.021 62.267 114.099 62.2351C114.177 62.2042 114.242 62.1619 114.294 62.1073C114.346 62.0529 114.384 61.9891 114.41 61.9171C114.435 61.8436 114.448 61.7681 114.448 61.6863V61.6862ZM114.682 63.6094C114.682 63.5051 114.664 63.4117 114.63 63.3289C114.595 63.2474 114.545 63.1789 114.477 63.1232C114.411 63.0676 114.326 63.0252 114.222 62.9943C114.118 62.9648 113.983 62.9494 113.816 62.9494H113.277V64.2268H113.934C114.061 64.2268 114.167 64.2134 114.255 64.1865C114.341 64.1603 114.416 64.12 114.48 64.0681C114.542 64.016 114.592 63.9523 114.629 63.8742C114.664 63.7973 114.682 63.7087 114.682 63.6094H114.682Z" fill="#008237"/>
<path d="M120.943 60.8113C120.943 60.8787 120.94 60.9355 120.935 60.984C120.929 61.0314 120.92 61.069 120.909 61.0975C120.897 61.1271 120.882 61.1484 120.865 61.1612C120.848 61.1753 120.828 61.1824 120.808 61.1824H119.687V64.7978C119.687 64.8202 119.68 64.8417 119.664 64.8605C119.649 64.8782 119.624 64.8937 119.59 64.9054C119.556 64.9162 119.508 64.9255 119.449 64.9326C119.39 64.9397 119.317 64.9433 119.229 64.9433C119.142 64.9433 119.068 64.9396 119.009 64.9326C118.95 64.9255 118.903 64.9162 118.869 64.9054C118.834 64.8937 118.809 64.8782 118.794 64.8605C118.779 64.8417 118.772 64.8202 118.772 64.7978V61.1824H117.65C117.628 61.1824 117.608 61.1753 117.591 61.1612C117.576 61.1484 117.562 61.127 117.55 61.0975C117.539 61.069 117.53 61.0314 117.524 60.984C117.518 60.9354 117.516 60.8787 117.516 60.8113C117.516 60.7429 117.518 60.6835 117.524 60.6351C117.53 60.5865 117.539 60.5476 117.55 60.5191C117.562 60.4895 117.576 60.4694 117.591 60.4566C117.608 60.4436 117.628 60.4375 117.65 60.4375H120.808C120.828 60.4375 120.847 60.4436 120.865 60.4566C120.882 60.4694 120.897 60.4895 120.909 60.5191C120.92 60.5476 120.928 60.5865 120.934 60.6351C120.94 60.6835 120.943 60.7429 120.943 60.8113H120.943Z" fill="#008237"/>
<path d="M124.674 64.5825C124.701 64.6653 124.719 64.7315 124.726 64.7798C124.733 64.8284 124.723 64.865 124.699 64.8899C124.672 64.9136 124.627 64.9291 124.562 64.9348C124.499 64.9407 124.409 64.9431 124.296 64.9431C124.178 64.9431 124.086 64.9419 124.021 64.9385C123.955 64.9347 123.905 64.9278 123.869 64.917C123.835 64.9063 123.811 64.8921 123.797 64.8733C123.783 64.8555 123.771 64.8307 123.763 64.8012L123.468 63.9H121.777L121.495 64.7764C121.485 64.8095 121.473 64.8367 121.458 64.8579C121.444 64.8804 121.419 64.8969 121.386 64.91C121.353 64.9231 121.305 64.9314 121.244 64.9361C121.182 64.9408 121.102 64.9432 121.003 64.9432C120.896 64.9432 120.813 64.9396 120.753 64.9326C120.693 64.9254 120.652 64.909 120.629 64.8829C120.605 64.8557 120.597 64.8178 120.604 64.7694C120.611 64.7208 120.629 64.657 120.656 64.5753L122.037 60.5961C122.05 60.5568 122.067 60.525 122.086 60.5012C122.104 60.4764 122.133 60.4587 122.173 60.4458C122.215 60.4327 122.271 60.4243 122.343 60.421C122.413 60.4173 122.508 60.416 122.626 60.416C122.762 60.416 122.871 60.4173 122.952 60.421C123.033 60.4243 123.096 60.4327 123.141 60.4458C123.186 60.4587 123.218 60.4777 123.238 60.5025C123.257 60.5287 123.274 60.5629 123.287 60.6066L124.674 64.5826L124.674 64.5825ZM122.616 61.2899H122.612L121.988 63.1977H123.246L122.616 61.2899Z" fill="#008237"/>
<path d="M127.814 64.7976C127.814 64.8202 127.807 64.8413 127.791 64.8604C127.776 64.8782 127.751 64.8933 127.717 64.9054C127.683 64.9158 127.635 64.9254 127.579 64.9326C127.52 64.9396 127.446 64.943 127.356 64.943C127.269 64.943 127.195 64.9396 127.136 64.9326C127.077 64.9254 127.03 64.9158 126.995 64.9054C126.961 64.8933 126.936 64.8782 126.921 64.8604C126.906 64.8413 126.898 64.8202 126.898 64.7976V60.5616C126.898 60.5391 126.906 60.5176 126.921 60.4988C126.936 60.481 126.961 60.4656 126.998 60.4538C127.033 60.442 127.079 60.4337 127.137 60.4267C127.195 60.4196 127.269 60.416 127.356 60.416C127.446 60.416 127.52 60.4197 127.579 60.4267C127.635 60.4337 127.683 60.442 127.717 60.4538C127.751 60.4656 127.776 60.481 127.791 60.4988C127.807 60.5176 127.814 60.5391 127.814 60.5616V64.7976Z" fill="#008237"/>
<path d="M132.295 64.7976C132.295 64.8202 132.288 64.8413 132.273 64.8604C132.257 64.8782 132.232 64.8933 132.198 64.9054C132.164 64.9158 132.118 64.9254 132.06 64.9326C132.003 64.9396 131.93 64.943 131.844 64.943C131.754 64.943 131.679 64.9396 131.62 64.9326C131.561 64.9254 131.516 64.9158 131.481 64.9054C131.448 64.8933 131.425 64.8782 131.409 64.8604C131.394 64.8413 131.387 64.8202 131.387 64.7976V62.9848H129.705V64.7976C129.705 64.8202 129.698 64.8413 129.684 64.8604C129.671 64.8782 129.646 64.8933 129.612 64.9054C129.577 64.9158 129.531 64.9254 129.473 64.9326C129.417 64.9396 129.342 64.943 129.253 64.943C129.166 64.943 129.092 64.9396 129.033 64.9326C128.974 64.9254 128.928 64.9158 128.894 64.9054C128.86 64.8933 128.835 64.8782 128.819 64.8604C128.804 64.8413 128.797 64.8202 128.797 64.7976V60.5616C128.797 60.5391 128.804 60.5176 128.819 60.4988C128.835 60.481 128.86 60.4656 128.894 60.4538C128.928 60.442 128.974 60.4337 129.033 60.4267C129.092 60.4196 129.166 60.416 129.253 60.416C129.342 60.416 129.417 60.4197 129.473 60.4267C129.531 60.4337 129.577 60.4431 129.612 60.4538C129.646 60.4656 129.671 60.481 129.684 60.4988C129.698 60.5176 129.705 60.5391 129.705 60.5616V62.2113H131.387V60.5616C131.387 60.5391 131.394 60.5176 131.409 60.4988C131.425 60.481 131.448 60.4656 131.481 60.4538C131.516 60.4431 131.561 60.4337 131.62 60.4267C131.679 60.4196 131.754 60.416 131.844 60.416C131.93 60.416 132.003 60.4197 132.06 60.4267C132.118 60.4337 132.164 60.442 132.198 60.4538C132.232 60.4656 132.257 60.481 132.273 60.4988C132.288 60.5176 132.295 60.5391 132.295 60.5616V64.7976Z" fill="#008237"/>
<path d="M136.368 64.245C136.368 64.3028 136.367 64.3524 136.364 64.393C136.36 64.433 136.354 64.4686 136.347 64.497C136.341 64.5263 136.332 64.551 136.32 64.5726C136.308 64.5926 136.29 64.6162 136.264 64.6423C136.239 64.6685 136.19 64.7027 136.118 64.7441C136.044 64.7843 135.956 64.8246 135.851 64.8622C135.745 64.8991 135.626 64.9309 135.491 64.9558C135.356 64.9806 135.209 64.9937 135.052 64.9937C134.746 64.9937 134.469 64.9464 134.222 64.8517C133.975 64.7571 133.764 64.6152 133.592 64.4271C133.418 64.2391 133.285 64.0049 133.193 63.7224C133.101 63.4409 133.055 63.1134 133.055 62.7396C133.055 62.3587 133.106 62.0205 133.207 61.7249C133.309 61.4291 133.451 61.1808 133.633 60.9798C133.815 60.7788 134.034 60.6275 134.289 60.5235C134.544 60.4195 134.825 60.3672 135.133 60.3672C135.257 60.3672 135.376 60.3778 135.492 60.399C135.608 60.4194 135.714 60.4466 135.813 60.4808C135.911 60.514 135.998 60.553 136.077 60.5967C136.156 60.6416 136.211 60.6795 136.242 60.7104C136.273 60.7422 136.294 60.7684 136.306 60.7882C136.318 60.8096 136.327 60.8355 136.333 60.8674C136.34 60.9006 136.346 60.9385 136.35 60.9821C136.353 61.0261 136.354 61.0791 136.354 61.1442C136.354 61.213 136.352 61.272 136.347 61.3206C136.342 61.369 136.334 61.4079 136.323 61.4374C136.312 61.4672 136.297 61.4895 136.282 61.5025C136.266 61.5168 136.247 61.524 136.226 61.524C136.192 61.524 136.149 61.5039 136.095 61.4636C136.042 61.4233 135.973 61.3784 135.889 61.3287C135.806 61.2791 135.705 61.2341 135.588 61.1938C135.472 61.1536 135.334 61.1335 135.172 61.1335C134.994 61.1335 134.836 61.1703 134.696 61.2425C134.557 61.3156 134.438 61.4187 134.34 61.5535C134.242 61.6894 134.168 61.8526 134.117 62.0441C134.066 62.2347 134.041 62.4511 134.041 62.691C134.041 62.9537 134.068 63.1819 134.123 63.3748C134.177 63.5665 134.254 63.7259 134.354 63.85C134.454 63.9742 134.576 64.0677 134.718 64.1279C134.859 64.1896 135.019 64.2201 135.196 64.2201C135.357 64.2201 135.497 64.2013 135.615 64.1634C135.732 64.1257 135.833 64.0831 135.917 64.0381C136.002 63.9919 136.07 63.9506 136.125 63.914C136.179 63.8774 136.221 63.8583 136.251 63.8583C136.274 63.8583 136.293 63.863 136.306 63.8724C136.32 63.8818 136.332 63.8996 136.341 63.9281C136.35 63.9553 136.357 63.9945 136.361 64.0441C136.366 64.0948 136.368 64.1613 136.368 64.2452V64.245Z" fill="#008237"/>
<path d="M140.005 60.8113C140.005 60.8787 140.003 60.9355 139.997 60.984C139.991 61.0314 139.983 61.069 139.971 61.0975C139.959 61.1271 139.945 61.1484 139.927 61.1612C139.911 61.1753 139.891 61.1824 139.87 61.1824H138.749V64.7978C138.749 64.8202 138.742 64.8417 138.727 64.8605C138.711 64.8782 138.687 64.8937 138.652 64.9054C138.618 64.9162 138.571 64.9255 138.511 64.9326C138.452 64.9397 138.379 64.9433 138.292 64.9433C138.204 64.9433 138.131 64.9396 138.072 64.9326C138.013 64.9255 137.965 64.9162 137.931 64.9054C137.897 64.8937 137.872 64.8782 137.856 64.8605C137.841 64.8417 137.834 64.8202 137.834 64.7978V61.1824H136.713C136.69 61.1824 136.67 61.1753 136.654 61.1612C136.638 61.1484 136.624 61.127 136.612 61.0975C136.602 61.069 136.592 61.0314 136.586 60.984C136.58 60.9354 136.578 60.8787 136.578 60.8113C136.578 60.7429 136.58 60.6835 136.586 60.6351C136.592 60.5865 136.602 60.5476 136.612 60.5191C136.624 60.4895 136.638 60.4694 136.654 60.4566C136.67 60.4436 136.69 60.4375 136.713 60.4375H139.87C139.891 60.4375 139.909 60.4436 139.927 60.4566C139.945 60.4694 139.959 60.4895 139.971 60.5191C139.983 60.5476 139.991 60.5865 139.997 60.6351C140.003 60.6835 140.005 60.7429 140.005 60.8113Z" fill="#008237"/>
<path d="M143.612 61.7997C143.612 62.0527 143.572 62.2751 143.493 62.4691C143.415 62.6641 143.301 62.8275 143.149 62.96C142.999 63.0936 142.814 63.1939 142.596 63.2639C142.377 63.3334 142.119 63.3679 141.822 63.3679H141.447V64.7976C141.447 64.8214 141.44 64.8413 141.425 64.8604C141.41 64.8782 141.385 64.8932 141.35 64.905C141.316 64.9171 141.27 64.9254 141.212 64.9325C141.155 64.9396 141.081 64.9429 140.992 64.9429C140.905 64.9429 140.831 64.9395 140.772 64.9325C140.713 64.9254 140.667 64.9158 140.632 64.905C140.598 64.8932 140.573 64.8782 140.56 64.8604C140.546 64.8413 140.539 64.8198 140.539 64.7976V60.7636C140.539 60.6549 140.567 60.5734 140.624 60.519C140.681 60.4646 140.755 60.4375 140.848 60.4375H141.905C142.011 60.4375 142.113 60.4408 142.209 60.4492C142.305 60.4574 142.419 60.4752 142.554 60.5013C142.688 60.5285 142.824 60.5771 142.961 60.649C143.098 60.7201 143.216 60.8111 143.314 60.9211C143.411 61.031 143.485 61.1587 143.536 61.3066C143.587 61.4533 143.611 61.6177 143.611 61.7998L143.612 61.7997ZM142.661 61.8661C142.661 61.7088 142.632 61.5786 142.577 61.477C142.521 61.3752 142.453 61.2995 142.371 61.2509C142.289 61.2025 142.204 61.172 142.115 61.1587C142.026 61.1459 141.933 61.1399 141.838 61.1399H141.447V62.6655H141.859C142.005 62.6655 142.127 62.6454 142.227 62.6062C142.325 62.5672 142.406 62.5118 142.469 62.4407C142.532 62.3709 142.579 62.2858 142.612 62.1878C142.644 62.0894 142.661 61.982 142.661 61.8662L142.661 61.8661Z" fill="#008237"/>
<path d="M146.41 63.6837C146.308 63.9413 146.209 64.1554 146.111 64.3235C146.013 64.4926 145.908 64.6261 145.796 64.7244C145.684 64.8224 145.562 64.8899 145.43 64.9288C145.298 64.9667 145.146 64.9858 144.976 64.9858C144.913 64.9858 144.853 64.9821 144.792 64.9737C144.732 64.9657 144.677 64.9549 144.623 64.9408C144.57 64.9267 144.524 64.91 144.485 64.8922C144.446 64.8734 144.417 64.8556 144.399 64.8401C144.38 64.8237 144.365 64.8059 144.355 64.7858C144.345 64.767 144.336 64.7409 144.33 64.7077C144.323 64.6758 144.317 64.6345 144.313 64.5849C144.31 64.5352 144.309 64.4725 144.309 64.3993C144.309 64.2645 144.318 64.1698 144.338 64.1128C144.357 64.0561 144.388 64.0279 144.429 64.0279C144.451 64.0279 144.473 64.0363 144.498 64.0528C144.524 64.0682 144.555 64.086 144.59 64.1037C144.625 64.1225 144.667 64.139 144.714 64.1544C144.762 64.1698 144.817 64.1769 144.881 64.1769C144.929 64.1769 144.974 64.1722 145.016 64.1615C145.057 64.1508 145.096 64.1306 145.133 64.1012C145.17 64.0716 145.206 64.029 145.243 63.9746C145.28 63.9216 145.32 63.8505 145.361 63.763L143.887 60.7593C143.854 60.6868 143.836 60.6291 143.83 60.5841C143.824 60.5391 143.834 60.5039 143.862 60.4791C143.89 60.4529 143.937 60.4365 144.002 60.4281C144.069 60.4197 144.157 60.4161 144.268 60.4161C144.377 60.4161 144.464 60.4187 144.529 60.4232C144.594 60.4281 144.646 60.4375 144.685 60.4529C144.724 60.467 144.754 60.4895 144.774 60.5179C144.796 60.5475 144.816 60.5854 144.838 60.6313L145.465 61.9889C145.535 62.1345 145.6 62.2798 145.662 62.4241C145.724 62.5684 145.785 62.714 145.841 62.8617H145.852C145.898 62.7069 145.948 62.5566 146 62.41C146.052 62.2634 146.109 62.1097 146.171 61.9476L146.689 60.5687C146.701 60.5367 146.716 60.5109 146.734 60.4905C146.753 60.4706 146.78 60.4552 146.817 60.4434C146.854 60.4327 146.905 60.4243 146.97 60.421C147.034 60.4173 147.117 60.416 147.222 60.416C147.327 60.416 147.412 60.4197 147.473 60.4267C147.536 60.4337 147.581 60.4468 147.608 60.4656C147.637 60.486 147.648 60.5132 147.646 60.5474C147.644 60.5827 147.633 60.628 147.612 60.6833L146.41 63.6837H146.41Z" fill="#008237"/>
<path d="M153.386 64.7978C153.386 64.8203 153.38 64.8414 153.367 64.8605C153.354 64.8783 153.331 64.8934 153.298 64.9055C153.265 64.9159 153.22 64.9256 153.164 64.9327C153.108 64.9398 153.037 64.9431 152.952 64.9431C152.868 64.9431 152.799 64.9397 152.743 64.9327C152.687 64.9256 152.644 64.9159 152.611 64.9055C152.579 64.8935 152.555 64.8783 152.542 64.8605C152.528 64.8414 152.521 64.8203 152.521 64.7978V61.1469H152.514L151.219 64.7942C151.209 64.8239 151.195 64.8486 151.174 64.8687C151.152 64.8888 151.125 64.9043 151.089 64.916C151.053 64.9266 151.007 64.935 150.953 64.9384C150.897 64.9422 150.83 64.9432 150.752 64.9432C150.672 64.9432 150.606 64.9408 150.55 64.935C150.495 64.929 150.449 64.9196 150.413 64.9066C150.378 64.8935 150.349 64.8784 150.328 64.8606C150.308 64.8415 150.294 64.8191 150.287 64.7942L149.037 61.1469H149.03V64.7978C149.03 64.8203 149.024 64.8414 149.011 64.8605C148.997 64.8783 148.974 64.8934 148.94 64.9055C148.904 64.9159 148.859 64.9256 148.805 64.9327C148.75 64.9398 148.681 64.9431 148.595 64.9431C148.512 64.9431 148.442 64.9397 148.386 64.9327C148.331 64.9256 148.286 64.9159 148.253 64.9055C148.219 64.8935 148.196 64.8783 148.183 64.8605C148.17 64.8414 148.164 64.8203 148.164 64.7978V60.8017C148.164 60.6836 148.195 60.5936 148.257 60.5309C148.32 60.4682 148.403 60.4376 148.508 60.4376H149.104C149.211 60.4376 149.303 60.4457 149.378 60.4634C149.455 60.4812 149.522 60.5097 149.577 60.5497C149.632 60.5902 149.679 60.6433 149.716 60.7094C149.752 60.7758 149.785 60.8573 149.813 60.9542L150.779 63.6258H150.793L151.794 60.9602C151.823 60.8633 151.856 60.7814 151.892 60.714C151.928 60.6479 151.97 60.5936 152.017 60.552C152.064 60.5107 152.121 60.4812 152.185 60.4634C152.25 60.4456 152.326 60.4375 152.411 60.4375H153.026C153.088 60.4375 153.141 60.4456 153.187 60.4624C153.231 60.4776 153.269 60.5014 153.298 60.5332C153.327 60.564 153.348 60.6019 153.364 60.6469C153.379 60.6916 153.386 60.7439 153.386 60.8017V64.7978H153.386Z" fill="#008237"/>
<path d="M157.013 64.5635C157.013 64.631 157.011 64.6866 157.005 64.7327C156.999 64.7776 156.991 64.8142 156.979 64.8413C156.967 64.8699 156.953 64.89 156.935 64.9029C156.918 64.9159 156.898 64.9219 156.878 64.9219H154.629C154.553 64.9219 154.489 64.8995 154.437 64.8545C154.385 64.8095 154.359 64.7363 154.359 64.6343V60.7248C154.359 60.6231 154.385 60.5496 154.437 60.5047C154.489 60.4597 154.553 60.4375 154.629 60.4375H156.868C156.888 60.4375 156.906 60.4432 156.923 60.455C156.938 60.467 156.953 60.4871 156.964 60.5153C156.975 60.5449 156.985 60.5815 156.991 60.6267C156.996 60.6727 156.999 60.7294 156.999 60.7992C156.999 60.8643 156.996 60.9186 156.991 60.9649C156.985 61.0096 156.977 61.0465 156.964 61.0737C156.953 61.1019 156.938 61.122 156.923 61.1351C156.906 61.1482 156.888 61.1542 156.868 61.1542H155.267V62.2467H156.616C156.637 62.2467 156.656 62.2527 156.672 62.2658C156.69 62.2786 156.704 62.2977 156.716 62.3249C156.728 62.3507 156.736 62.3863 156.742 62.4323C156.748 62.4773 156.75 62.5316 156.75 62.5956C156.75 62.6631 156.748 62.7187 156.742 62.7624C156.736 62.8061 156.728 62.8416 156.716 62.8677C156.704 62.8946 156.69 62.9137 156.672 62.9245C156.656 62.9363 156.637 62.9419 156.616 62.9419H155.267V64.2052H156.878C156.899 64.2052 156.919 64.2108 156.935 64.224C156.953 64.237 156.967 64.2571 156.979 64.2856C156.991 64.3128 156.999 64.3494 157.005 64.3944C157.011 64.4404 157.013 64.4961 157.013 64.5635H157.013Z" fill="#008237"/>
<path d="M161.326 64.7976C161.326 64.8202 161.319 64.8413 161.304 64.8604C161.288 64.8782 161.263 64.8933 161.229 64.9054C161.195 64.9158 161.149 64.9254 161.091 64.9326C161.034 64.9396 160.961 64.943 160.874 64.943C160.784 64.943 160.71 64.9396 160.651 64.9326C160.592 64.9254 160.547 64.9158 160.512 64.9054C160.479 64.8933 160.456 64.8782 160.44 64.8604C160.425 64.8413 160.418 64.8202 160.418 64.7976V62.9848H158.736V64.7976C158.736 64.8202 158.729 64.8413 158.715 64.8604C158.702 64.8782 158.677 64.8933 158.643 64.9054C158.608 64.9158 158.562 64.9254 158.504 64.9326C158.448 64.9396 158.373 64.943 158.284 64.943C158.197 64.943 158.123 64.9396 158.064 64.9326C158.005 64.9254 157.959 64.9158 157.925 64.9054C157.891 64.8933 157.866 64.8782 157.85 64.8604C157.835 64.8413 157.828 64.8202 157.828 64.7976V60.5616C157.828 60.5391 157.835 60.5176 157.85 60.4988C157.866 60.481 157.891 60.4656 157.925 60.4538C157.959 60.442 158.005 60.4337 158.064 60.4267C158.123 60.4196 158.197 60.416 158.284 60.416C158.373 60.416 158.448 60.4197 158.504 60.4267C158.562 60.4337 158.608 60.4431 158.643 60.4538C158.677 60.4656 158.702 60.481 158.715 60.4988C158.729 60.5176 158.736 60.5391 158.736 60.5616V62.2113H160.418V60.5616C160.418 60.5391 160.425 60.5176 160.44 60.4988C160.456 60.481 160.479 60.4656 160.512 60.4538C160.547 60.4431 160.592 60.4337 160.651 60.4267C160.71 60.4196 160.785 60.416 160.874 60.416C160.961 60.416 161.034 60.4197 161.091 60.4267C161.149 60.4337 161.195 60.442 161.229 60.4538C161.263 60.4656 161.288 60.481 161.304 60.4988C161.319 60.5176 161.326 60.5391 161.326 60.5616V64.7976Z" fill="#008237"/>
<path d="M165.279 60.8113C165.279 60.8787 165.276 60.9355 165.27 60.984C165.265 61.0314 165.256 61.069 165.244 61.0975C165.232 61.1271 165.218 61.1484 165.201 61.1612C165.184 61.1753 165.164 61.1824 165.144 61.1824H164.023V64.7978C164.023 64.8202 164.016 64.8417 164 64.8605C163.985 64.8782 163.96 64.8937 163.926 64.9054C163.891 64.9162 163.844 64.9255 163.785 64.9326C163.726 64.9397 163.653 64.9433 163.565 64.9433C163.478 64.9433 163.404 64.9396 163.345 64.9326C163.286 64.9255 163.239 64.9162 163.204 64.9054C163.17 64.8937 163.145 64.8782 163.13 64.8605C163.115 64.8417 163.107 64.8202 163.107 64.7978V61.1824H161.986C161.964 61.1824 161.944 61.1753 161.927 61.1612C161.912 61.1484 161.898 61.127 161.886 61.0975C161.875 61.069 161.866 61.0314 161.86 60.984C161.854 60.9354 161.852 60.8787 161.852 60.8113C161.852 60.7429 161.854 60.6835 161.86 60.6351C161.866 60.5865 161.875 60.5476 161.886 60.5191C161.898 60.4895 161.912 60.4694 161.927 60.4566C161.944 60.4436 161.964 60.4375 161.986 60.4375H165.144C165.164 60.4375 165.183 60.4436 165.2 60.4566C165.218 60.4694 165.232 60.4895 165.244 60.5191C165.256 60.5476 165.265 60.5865 165.27 60.6351C165.276 60.6835 165.279 60.7429 165.279 60.8113H165.279Z" fill="#008237"/>
<path d="M166.728 64.7976C166.728 64.8202 166.721 64.8413 166.705 64.8604C166.69 64.8782 166.665 64.8933 166.631 64.9054C166.597 64.9158 166.549 64.9254 166.493 64.9326C166.435 64.9396 166.36 64.943 166.27 64.943C166.183 64.943 166.109 64.9396 166.05 64.9326C165.991 64.9254 165.944 64.9158 165.91 64.9054C165.875 64.8933 165.85 64.8782 165.835 64.8604C165.82 64.8413 165.812 64.8202 165.812 64.7976V60.5616C165.812 60.5391 165.82 60.5176 165.835 60.4988C165.85 60.481 165.875 60.4656 165.912 60.4538C165.947 60.442 165.993 60.4337 166.051 60.4267C166.109 60.4196 166.183 60.416 166.27 60.416C166.36 60.416 166.435 60.4197 166.493 60.4267C166.549 60.4337 166.597 60.442 166.631 60.4538C166.665 60.4656 166.69 60.481 166.705 60.4988C166.721 60.5176 166.728 60.5391 166.728 60.5616V64.7976Z" fill="#008237"/>
<path d="M170.946 63.5761C170.946 63.7358 170.924 63.8801 170.88 64.0099C170.836 64.1388 170.776 64.2539 170.699 64.3529C170.621 64.4522 170.529 64.5374 170.422 64.6096C170.315 64.6817 170.196 64.7397 170.067 64.787C169.938 64.8333 169.8 64.8675 169.653 64.8887C169.507 64.9112 169.343 64.9219 169.164 64.9219H167.973C167.897 64.9219 167.833 64.8994 167.781 64.8545C167.729 64.8095 167.703 64.7363 167.703 64.6343V60.7248C167.703 60.623 167.729 60.5496 167.781 60.5049C167.833 60.4596 167.897 60.4375 167.973 60.4375H169.096C169.371 60.4375 169.603 60.461 169.793 60.507C169.983 60.5532 170.143 60.6231 170.273 60.7164C170.404 60.81 170.503 60.928 170.572 61.0713C170.642 61.2143 170.676 61.3824 170.676 61.576C170.676 61.685 170.662 61.7867 170.635 61.8823C170.608 61.9783 170.567 62.0659 170.514 62.1437C170.461 62.2231 170.396 62.2917 170.318 62.3521C170.241 62.4123 170.154 62.4607 170.054 62.4976C170.181 62.5211 170.299 62.5613 170.407 62.6193C170.514 62.6771 170.607 62.7516 170.687 62.8429C170.767 62.9338 170.83 63.0415 170.876 63.1633C170.922 63.2861 170.946 63.4234 170.946 63.576L170.946 63.5761ZM169.768 61.6862C169.768 61.5965 169.754 61.516 169.727 61.4439C169.699 61.3728 169.658 61.3127 169.602 61.2653C169.547 61.218 169.477 61.1825 169.393 61.1567C169.309 61.1318 169.197 61.1187 169.056 61.1187H168.597V62.2824H169.105C169.236 62.2824 169.341 62.267 169.419 62.2351C169.497 62.2042 169.562 62.1619 169.614 62.1073C169.666 62.0529 169.704 61.9891 169.73 61.9171C169.755 61.8436 169.768 61.7681 169.768 61.6863V61.6862ZM170.002 63.6094C170.002 63.5051 169.984 63.4117 169.95 63.3289C169.916 63.2474 169.865 63.1789 169.797 63.1232C169.731 63.0676 169.646 63.0252 169.542 62.9943C169.438 62.9648 169.303 62.9494 169.136 62.9494H168.597V64.2268H169.255C169.381 64.2268 169.488 64.2134 169.575 64.1865C169.661 64.1603 169.736 64.12 169.8 64.0681C169.862 64.016 169.912 63.9523 169.949 63.8742C169.984 63.7973 170.002 63.7087 170.002 63.6094H170.002Z" fill="#008237"/>
</g>
<defs>
<clipPath id="clip0_6526_7335">
<rect width="170.949" height="65" fill="white"/>
</clipPath>
</defs>
</svg>
