<?xml version="1.0" encoding="utf-8"?><svg viewBox="0 0 40 40" xmlns="http://www.w3.org/2000/svg" xmlns:xlink="http://www.w3.org/1999/xlink"><style>:root>svg{display:none}:root>svg:target{display:block}</style><svg viewBox="0 0 10 10" id="arrow" xmlns="http://www.w3.org/2000/svg"><path fill-rule="evenodd" clip-rule="evenodd" d="M1.03 3.404a.313.313 0 0 1 .442 0L5 6.934l3.528-3.53a.313.313 0 1 1 .443.443l-3.75 3.75a.312.312 0 0 1-.443 0l-3.75-3.75a.313.313 0 0 1 0-.443Z"/></svg><svg viewBox="0 0 10 10" id="arrow-color" xmlns="http://www.w3.org/2000/svg"><path fill-rule="evenodd" clip-rule="evenodd" d="M1.03 3.404a.313.313 0 0 1 .442 0L5 6.934l3.528-3.53a.313.313 0 1 1 .443.443l-3.75 3.75a.312.312 0 0 1-.443 0l-3.75-3.75a.313.313 0 0 1 0-.443Z"/></svg><svg fill="none" viewBox="0 0 32 32" id="close" xmlns="http://www.w3.org/2000/svg"><path d="M24 8 8 24M8 8l16 16"/></svg><svg viewBox="0 0 13 12" id="double-arrow" xmlns="http://www.w3.org/2000/svg"><path d="M6.953 6.199 9.712 8.92a.27.27 0 0 0 .198.084.27.27 0 0 0 .197-.084l.168-.168a.27.27 0 0 0 .084-.198.27.27 0 0 0-.084-.197L7.877 5.995l2.398-2.35a.27.27 0 0 0 .084-.198.27.27 0 0 0-.084-.197l-.168-.168a.27.27 0 0 0-.197-.084.27.27 0 0 0-.198.084L6.953 5.803a.27.27 0 0 0-.084.198.27.27 0 0 0 .084.198ZM1.461 6.199 4.22 8.92a.27.27 0 0 0 .197.084.27.27 0 0 0 .198-.084l.168-.168a.27.27 0 0 0 .084-.198.27.27 0 0 0-.084-.197L2.385 5.995l2.398-2.35a.27.27 0 0 0 .084-.198.27.27 0 0 0-.084-.197l-.168-.168a.27.27 0 0 0-.198-.084.27.27 0 0 0-.197.084L1.46 5.803a.27.27 0 0 0-.084.198.27.27 0 0 0 .084.198Z"/></svg><svg fill="none" viewBox="0 0 16 26" id="facebook" xmlns="http://www.w3.org/2000/svg"><g stroke="#00963F" stroke-linecap="round"><path d="M5.616 23c0-.522.075-7.865 0-7.865H1.393c-.074 0-.075-4.25 0-4.25h4.225c.111 0-.071-5.406 0-6.522.11-1.752 1.424-3.28 3.484-3.28 2.038 0 4.966-.187 4.966 0 0 .149.013 3.988 0 4.212-.006.112-2.817.074-2.89.074-.075 0 0 2.215 0 3.631"/><path d="M11.142 10.924h4.189c.11 0-1.001 4.212-1.112 4.212h-3.077c-.111 0 0 9.784-.111 9.84-.111.056-5.226 0-5.375 0"/></g></svg><svg fill="none" viewBox="0 0 26 26" id="instagram" xmlns="http://www.w3.org/2000/svg"><g stroke="#00963F"><path d="M25 16.5V6.892c0-3.253-2.514-5.89-5.614-5.89H6.614C3.514 1.002 1 3.639 1 6.892v12.22c0 3.253 2.513 5.89 5.614 5.89h12.772c.912-.025 2.878-.317 4.035-1.877.464-.626 1.123-.957 1.579-4.013" stroke-linecap="round"/><path d="M13.146 7h-.292A5.854 5.854 0 0 0 7 12.854v.292A5.854 5.854 0 0 0 12.854 19h.292A5.854 5.854 0 0 0 19 13.146c0-1.17-.386-3-1.5-4.146-.514-.529-1-1-2-1.5" stroke-linecap="round"/><rect x="18.766" y="4.52" width="2.4" height="2.4" rx="1.2"/></g></svg><svg fill="none" viewBox="0 0 22 25" id="location" xmlns="http://www.w3.org/2000/svg"><g stroke="#00963F" stroke-linecap="round"><path d="M4.448 4.175c.537-1.087 1.685-2.255 3.297-3 2.032-.937 5.674-.862 7.514 0 1.419.665 2.629 1.842 3.297 3.975.669 2.134-.077 5.61-.575 7.05-1.141 3.3-2.932 5.956-4.141 7.3-.568.63-1.963 2.375-2.491 2.375-.46 0-3.01-2.875-4.51-5.375s-3-7.5-3-10"/><path d="M6.334 8c-.002 2.499 1.92 5.218 4.862 5.321 2.941.104 5.411-2.145 5.517-5.022.105-2.876-2.193-5.292-5.134-5.396C9.507 2.83 7.832 4 6.832 6M4.34 24.5h14.867c.498 0 1.206-.317 1.534-.637.421-.413.69-1.125.575-1.613-.115-.487-.333-1.25-.575-2.25M1.688 21.162h8.587"/><path d="M15.059 21.2h1.351c.174 0 .425 3.3.425 3.3M20.088 17.787c-.192-.487-.268-1.085-.997-1.237-.43-.09-2.032 0-3.029 0M6.596 16.55H4.142c-.92 0-.958.076-1.303.488-.345.413-1.495 4.913-1.495 5.288 0 .937.383 1.5.69 1.762"/></g></svg><svg fill="none" viewBox="0 0 26 19" id="mail" xmlns="http://www.w3.org/2000/svg"><g stroke="#00963F" stroke-linecap="round"><path d="M1.073 3.187v5.915c0 4.554-.076 9.11 0 9.188.15.154 5.762.147 12.039.193 5.927.044 11.794.001 11.851-.077.057-.078 0-1.72 0-1.72"/><path d="M24.947 14.351V9.024c0-4.209.15-8.34-.055-8.455-.205-.116-8.014 0-11.852 0-3.75 0-11.889-.155-12.039 0-.15.154 11.627 11.775 12.04 11.775.412 0 9.982-9.658 9.982-9.658M1.151 18.174l6.872-7.336m16.87 7.529-6.87-7.529"/></g></svg><svg fill="none" viewBox="0 0 40 40" id="menu" xmlns="http://www.w3.org/2000/svg"><path d="M3.344 18.852h32m-32 9.548h32m-32-19h21.7m10.3 0h-6.5"/></svg><svg viewBox="0 0 15 14" id="nav" xmlns="http://www.w3.org/2000/svg"><g clip-path="url(#ja)"><path d="M1.05 6.476 6.758.77A.604.604 0 0 1 7.26.539a.635.635 0 0 1 .49.217l.685.643a.62.62 0 0 1 .189.504.768.768 0 0 1-.23.503l-3.525 3.37h8.447c.205 0 .373.073.504.217a.72.72 0 0 1 .196.497v.951a.681.681 0 0 1-.196.504.681.681 0 0 1-.504.195H4.87l3.524 3.385c.15.13.229.296.238.496.01.2-.056.366-.196.497l-.685.643a.65.65 0 0 1-.497.21.65.65 0 0 1-.496-.21L1.05 7.455a.64.64 0 0 1-.196-.503.515.515 0 0 1 .196-.476Z"/></g><defs><clipPath id="ja"><path fill="#fff" transform="rotate(180 7.012 7)" d="M0 0h14.02v14H0z"/></clipPath></defs></svg><svg fill="none" viewBox="0 0 26 25" id="phone" xmlns="http://www.w3.org/2000/svg"><g stroke="#00963F" stroke-linecap="round"><path d="M4.479 11C3.173 9.261 1.344 6.821 1.037 6.321c-.535-.869.192-2.079.845-2.797S4.609.5 5.108.5c.5 0 4.917 4.196 4.763 4.952-.154.756-1.575 3.213-1.575 4.347 0 1.134 6.453 7.523 7.221 7.636.768.114 2.978-1.55 3.649-1.55.269 0 1.21.586 1.71 1.115"/><path d="M5.969 13c2.688 2.91 4.44 4.85 6.514 6.854 1.477 1.427 4.84 4.007 6.184 4.423 1.344.416 1.641.15 2.035 0 .5-.19 4.149-2.608 4.149-3.327 0-.491-1.297-1.744-1.989-2.45"/></g></svg><svg fill="none" viewBox="0 0 26 22" id="telegram" xmlns="http://www.w3.org/2000/svg"><g stroke="#00963F" stroke-linecap="round"><path d="M3.9 10.586c-.24-.09-2.595-1.275-2.895-1.462-.301-.188 13.948-5.239 14.59-5.438C16.685 3.35 24.921.5 24.996.574c.075.075-.94 5.962-.94 5.962"/><path d="M5.895 11.71c.714.45 2.18 1.425 2.331 1.425.27 0 7.972-5.587 8.122-5.4.15.188-5.67 6.735-5.49 6.825.376.188 9.965 6.525 10.53 6.825.11.06 1.466-8.25 2.143-12.412"/></g></svg><svg fill="none" viewBox="0 0 24 26" id="viber" xmlns="http://www.w3.org/2000/svg"><g stroke="#00963F" stroke-linecap="round"><path d="M5.816 21.25s.675 3.75.9 3.75c.15 0 3.713-3.075 3.713-3.075M3.754 20.35c-.6-.413-1.786-1.538-2.176-3.338-.487-2.25-.9-6.637-.3-9.675.578-2.925 1.988-4.687 3.751-5.362C6.792 1.3 9.942 1 12.229 1c2.288 0 5.626 0 7.876 1.65 1.864 1.367 2.625 3.188 2.888 7.875M10.543 21.926c2.025.3 6.081-.187 7.2-.488 1.538-.412 3.32-1.243 4.163-3.075 1.088-2.362 1.126-4.5 1.126-5.437"/><path d="M6.939 11.37c-.678-.916-1.83-2.426-1.893-2.729-.08-.378.1-1.095.438-1.474.34-.378 1.415-1.593 1.674-1.593.26 0 2.55 2.21 2.471 2.61-.08.397-.817 1.692-.817 2.29 0 .597 3.348 3.963 3.746 4.022.399.06 1.545-.816 1.893-.816.14 0 .518.279.777.557"/><path d="M17.067 15.91c.198.198.338.367.338.457 0 .38-1.898 1.663-2.157 1.764-.205.079-.36.22-1.059 0s-2.447-1.588-3.215-2.345c-.784-.772-1.484-1.555-2.345-2.518M12.004 9.475a3.327 3.327 0 0 1 1.95 2.1M12.531 7.375a3.99 3.99 0 0 1 3.45 3.675M13.46 4.956a4.644 4.644 0 0 1 4.83 5.01"/></g></svg><svg fill="none" viewBox="0 0 26 27" id="whatsapp" xmlns="http://www.w3.org/2000/svg"><g stroke="#00963F" stroke-linecap="round"><path d="M2.539 19.188S.643 25.438.776 25.563c.134.124 6.113-1.65 6.113-1.65M6.902 23.913a12.132 12.132 0 0 0 6.063 1.612c6.274 0 11.442-4.741 12.113-10.837M1.295 16.863a12.188 12.188 0 0 1-.518-3.525C.777 6.607 6.234 1.15 12.965 1.15c6.274 0 11.442 4.742 12.113 10.838"/><path d="M8.512 13.04c-.763-.938-2.058-2.483-2.142-2.802-.106-.399.042-1.173.376-1.595.334-.422 1.395-1.777 1.667-1.792.272-.014 2.803 2.214 2.742 2.643-.06.429-.761 1.85-.727 2.486.033.637 3.74 4.036 4.161 4.078.422.041 1.576-.957 1.941-.976.09-.005.282.098.483.244"/><path d="M18.942 16.938c.411.338.796.678.805.83.021.403-1.888 1.867-2.153 1.988-.21.095-.363.254-1.106.059-.742-.195-2.644-1.546-3.49-2.305-.89-.8-1.688-1.618-2.685-2.635"/></g></svg></svg>