<svg width="171" height="65" viewBox="0 0 171 65" fill="none" xmlns="http://www.w3.org/2000/svg">
<path fill-rule="evenodd" clip-rule="evenodd" d="M9.83205 31.2437C7.48462 31.2437 5.61697 30.3867 4.08807 29.4498C3.36785 29.0084 1.04623 27.1867 0.521194 26.5713C0.204628 26.2003 0.445926 26.2283 0 26.1092C0.177586 26.8716 2.90075 32.8767 3.4238 34.0468C4.75406 37.0228 6.45548 41.4874 7.49667 44.6127L9.81937 52.0127C10.0752 52.8844 10.2654 53.691 10.5262 54.5832C11.2094 56.921 12.159 61.2326 12.699 63.7717C12.9118 64.7722 12.7839 64.7615 13.1094 65C13.1203 64.5125 13.9548 61.295 14.0924 60.7393C14.4279 59.3851 14.8001 57.9435 15.1981 56.6013C15.5937 55.2675 15.9009 53.8658 16.3457 52.5052C16.5724 51.8116 16.7462 51.1433 16.9326 50.4702C17.1246 49.7768 17.3829 49.029 17.5653 48.3718C17.947 46.9966 18.3714 45.6593 18.7762 44.3391L25.1392 24.3742C25.9797 21.7261 26.8997 19.0972 27.7088 16.3472L31.4005 4.19847C31.8051 2.77705 32.2228 1.426 32.555 0C31.4975 0.708106 28.8613 7.21099 28.0394 8.92147L23.7426 18.1709C22.4193 20.8174 21.6304 22.1686 20.058 24.5368C17.8225 27.9037 14.1347 31.2437 9.83205 31.2437Z" fill="#008135"/>
<path fill-rule="evenodd" clip-rule="evenodd" d="M4.91406 19.1175C4.91406 21.3316 5.17964 22.1823 6.45742 23.8011C6.99728 24.4851 6.68187 24.1275 7.28275 24.6144C7.49209 24.7841 7.46071 24.7852 7.707 24.9549C11.2194 27.376 15.8436 25.6267 17.1988 22.2257C20.0249 15.1337 11.5911 10.1159 6.85107 14.8277C5.94584 15.7275 4.91406 17.3678 4.91406 19.1175Z" fill="#00963F"/>
<path fill-rule="evenodd" clip-rule="evenodd" d="M108.258 52.1077H111.426V43.8052L113.939 49.5951H115.796C115.891 49.1855 116.221 48.5662 116.405 48.1288L117.622 45.1942C117.739 44.8989 117.818 44.7078 117.943 44.4226L118.308 43.6959V52.1077H121.586V38.9984C117.543 38.9984 119.067 38.3232 116.8 42.0781L115.031 45.3345C114.559 45.0187 112.928 41.489 112.455 40.7002C112.231 40.3257 111.736 39.3914 111.644 38.9984H108.258V52.1077Z" fill="#008135"/>
<path fill-rule="evenodd" clip-rule="evenodd" d="M79.9688 52.1077H83.1369V43.8052L83.4677 44.4575C83.8042 45.2202 85.6142 49.1709 85.6495 49.5951H87.5066C87.6021 49.1855 87.9323 48.5662 88.116 48.1288C88.3435 47.587 88.5182 47.1769 88.7251 46.6622C88.9199 46.1774 89.1237 45.723 89.3327 45.1942C89.4495 44.8989 89.5287 44.7078 89.6536 44.4226L90.0193 43.6959V52.1077H93.2966V38.9984C89.2535 38.9984 90.7782 38.3232 88.5107 42.0781L86.742 45.3345C86.307 45.0433 86.0911 44.3614 85.8316 43.8415C85.5357 43.2489 85.2632 42.8209 84.9932 42.2766C84.7218 41.7293 84.492 41.2442 84.1662 40.7002C83.9419 40.3257 83.4469 39.3914 83.3553 38.9984H79.9688V52.1077Z" fill="#008135"/>
<path fill-rule="evenodd" clip-rule="evenodd" d="M140.159 49.5962H139.066V41.5122C142.628 41.5122 143.218 41.8946 143.218 45.6635C143.218 48.469 142.784 49.5962 140.159 49.5962ZM135.68 52.1088C137.903 52.1088 140.422 52.2235 142.533 51.861C146.316 51.2115 146.386 47.9173 146.386 44.6803C146.386 41.7362 145.301 39.7372 142.643 39.2464C140.687 38.8853 137.769 38.9996 135.68 38.9996V52.1088Z" fill="#008135"/>
<path fill-rule="evenodd" clip-rule="evenodd" d="M46.9793 44.8986H45.5591V41.512C47.081 41.512 49.4919 41.1792 49.4919 42.9322C49.4919 44.3862 48.7401 44.8986 46.9793 44.8986ZM42.7188 52.1087H45.5591V47.3019C48.2684 47.3019 47.169 46.9338 48.7904 49.6421C49.2958 50.4865 49.6269 51.3314 50.1474 52.1087H53.4247C53.3069 51.6029 50.6383 47.4649 50.1474 46.5372C53.4322 44.7992 53.0337 40.8614 51.0597 39.7258C49.2146 38.6643 45.266 38.9994 42.7188 38.9994V52.1087Z" fill="#008135"/>
<path fill-rule="evenodd" clip-rule="evenodd" d="M100.836 43.042C100.871 43.4582 101.251 44.566 101.396 44.9949C101.586 45.5562 101.795 46.4686 102.038 46.9748H99.5254C99.5543 46.6277 100.496 43.2912 100.836 43.042ZM94.6094 52.1092H97.8867C98.0419 51.7858 98.6168 49.9028 98.6514 49.4874H102.803C103.014 50.3952 103.365 51.242 103.567 52.1092H106.954C106.915 51.6457 106.607 50.9037 106.449 50.4294C106.249 49.8306 106.102 49.3892 105.903 48.7907L102.584 39H98.9792L95.6602 48.7903C95.4589 49.3999 94.6464 51.6639 94.6094 52.1092Z" fill="#008135"/>
<path fill-rule="evenodd" clip-rule="evenodd" d="M60.9614 42.9328C61.0024 43.4259 61.9965 46.26 62.163 46.9748H59.6504C59.8088 46.2951 60.0455 45.6437 60.266 44.9686C60.4077 44.535 60.7115 43.2924 60.9614 42.9328ZM54.7344 52.1092H58.121C58.1304 51.996 58.6507 49.4874 59.1042 49.4874H62.7093C63.1017 49.4874 63.0296 49.8437 63.2977 50.6468C63.4239 51.0247 63.6618 51.7403 63.6925 52.1092H67.1883L64.9618 45.5962C64.5831 44.4497 64.2514 43.463 63.8697 42.3185C63.5456 41.3463 63.1228 39.7815 62.7093 39H59.1042C59.066 39.4593 58.7164 40.216 58.5718 40.6525L54.7344 52.1092Z" fill="#008135"/>
<path fill-rule="evenodd" clip-rule="evenodd" d="M123.773 52.1092H132.841V49.4874H127.051V46.8655H132.404V44.2437H127.051C127.051 42.6692 126.809 41.5126 127.379 41.5126H132.841V39H123.773V52.1092Z" fill="#008135"/>
<path fill-rule="evenodd" clip-rule="evenodd" d="M70.5729 52.1092H74.0688L77.9858 40.7322C78.1795 40.2155 78.4253 39.5261 78.5478 39H75.1612C74.7827 40.6245 73.5644 43.8036 73.0855 45.5546C72.977 45.9514 72.874 46.2425 72.744 46.6332L72.3608 47.6703C72.353 47.6853 72.336 47.7176 72.3209 47.7395C72.2568 46.9696 69.9163 40.4019 69.5897 39H66.2031C66.2176 39.65 68.1268 44.8215 68.3742 45.5685L70.0405 50.4568C70.1851 50.8933 70.5347 51.6499 70.5729 52.1092Z" fill="#008135"/>
<path fill-rule="evenodd" clip-rule="evenodd" d="M29.2812 41.9496H33.5418V51.7815C33.5418 52.0332 33.6178 52.1092 33.8695 52.1092H36.9284V41.9496H41.189V39H29.2812V41.9496Z" fill="#008135"/>
<path fill-rule="evenodd" clip-rule="evenodd" d="M152.945 48.9407C152.945 52.2598 155.972 52.7239 157.574 51.8209C158.11 51.5187 158.271 51.1447 158.626 50.9071C158.626 51.4887 158.725 51.5182 158.735 51.9995H161.139C161.128 51.5055 161.029 51.5654 161.029 51.0164V43.4785H158.298V48.7222C158.298 50.2066 155.676 50.761 155.676 48.5037V43.4785H152.945V48.9407Z" fill="#008135"/>
<path fill-rule="evenodd" clip-rule="evenodd" d="M166.378 50.2514C164.596 50.2514 165.072 48.6227 165.922 48.2662C166.251 48.1284 167.078 47.9573 167.58 47.9573C167.58 48.6285 167.76 50.2514 166.378 50.2514ZM163.101 44.0245C163.317 44.4741 163.431 45.3228 163.647 45.7724C164.547 45.2962 167.471 44.3272 167.471 46.3186H166.706C164.795 46.3186 162.555 47.4115 162.555 49.2682V49.8144C162.555 51.2207 163.856 52.2178 165.395 52.2178C166.598 52.2178 167.102 51.7011 167.798 51.2346C167.798 51.6659 167.833 51.6778 167.908 51.9993H170.311L170.202 49.0497C170.202 46.2411 170.624 43.2598 166.269 43.2598C165.116 43.2598 163.854 43.626 163.101 44.0245Z" fill="#008135"/>
<path fill-rule="evenodd" clip-rule="evenodd" d="M148.242 50.5799C148.242 52.8631 151.41 52.5438 151.41 50.7984C151.41 48.1178 148.242 48.5502 148.242 50.5799Z" fill="#008135"/>
</svg>
