<svg width="33" height="65" viewBox="0 0 33 65" fill="none" xmlns="http://www.w3.org/2000/svg">
<path fill-rule="evenodd" clip-rule="evenodd" d="M9.83205 31.2437C7.48462 31.2437 5.61697 30.3867 4.08807 29.4498C3.36785 29.0084 1.04623 27.1867 0.521194 26.5713C0.204628 26.2003 0.445926 26.2283 0 26.1092C0.177586 26.8716 2.90075 32.8767 3.4238 34.0468C4.75406 37.0228 6.45548 41.4874 7.49667 44.6127L9.81937 52.0127C10.0752 52.8844 10.2654 53.691 10.5262 54.5832C11.2094 56.921 12.159 61.2326 12.699 63.7717C12.9118 64.7722 12.7839 64.7615 13.1094 65C13.1203 64.5125 13.9548 61.295 14.0924 60.7393C14.4279 59.3851 14.8001 57.9435 15.1981 56.6013C15.5937 55.2675 15.9009 53.8658 16.3457 52.5052C16.5724 51.8116 16.7462 51.1433 16.9326 50.4702C17.1246 49.7768 17.3829 49.029 17.5653 48.3718C17.947 46.9966 18.3714 45.6593 18.7762 44.3391L25.1392 24.3742C25.9797 21.7261 26.8997 19.0972 27.7088 16.3472L31.4005 4.19847C31.8051 2.77705 32.2228 1.426 32.555 0C31.4975 0.708106 28.8613 7.21099 28.0394 8.92147L23.7426 18.1709C22.4193 20.8174 21.6304 22.1686 20.058 24.5368C17.8225 27.9037 14.1347 31.2437 9.83205 31.2437Z" fill="#008135"/>
<path fill-rule="evenodd" clip-rule="evenodd" d="M4.91406 19.1175C4.91406 21.3316 5.17964 22.1823 6.45742 23.8011C6.99728 24.4851 6.68187 24.1275 7.28275 24.6144C7.49209 24.7841 7.46071 24.7852 7.707 24.9549C11.2194 27.376 15.8436 25.6267 17.1988 22.2257C20.0249 15.1337 11.5911 10.1159 6.85107 14.8277C5.94584 15.7275 4.91406 17.3678 4.91406 19.1175Z" fill="#00963F"/>
</svg>
