<svg width="143" height="14" viewBox="0 0 143 14" fill="none" xmlns="http://www.w3.org/2000/svg">
<path fill-rule="evenodd" clip-rule="evenodd" d="M79.6875 13.1584H82.8556V4.85594L85.3682 10.6458H87.2253C87.3207 10.2363 87.651 9.61701 87.8347 9.17955L89.0514 6.24502C89.1681 5.94968 89.2474 5.75859 89.3722 5.47341L89.7379 4.74669V13.1584H93.0153V0.0491997C88.9722 0.0491997 90.4969 -0.62604 88.2294 3.1289L86.4606 6.38532C85.9889 6.06946 84.3572 2.53979 83.8849 1.75101C83.6606 1.37643 83.1656 0.442147 83.0741 0.0491997H79.6875V13.1584Z" fill="#008135"/>
<path fill-rule="evenodd" clip-rule="evenodd" d="M51.4062 13.1584H54.5743V4.85594L54.9051 5.5083C55.2417 6.27095 57.0516 10.2217 57.0869 10.6458H58.944C59.0395 10.2363 59.3697 9.61701 59.5534 9.17955C59.7809 8.6378 59.9556 8.22763 60.1625 7.71297C60.3573 7.22815 60.5611 6.77381 60.7701 6.24502C60.8869 5.94968 60.9661 5.75859 61.091 5.47341L61.4567 4.74669V13.1584H64.734V0.0491997C60.6909 0.0491997 62.2156 -0.62604 59.9482 3.1289L58.1794 6.38532C57.7444 6.09407 57.5285 5.41218 57.269 4.89231C56.9732 4.29969 56.7006 3.87165 56.4307 3.32734C56.1592 2.78005 55.9294 2.29503 55.6036 1.75101C55.3793 1.37643 54.8843 0.442147 54.7928 0.0491997H51.4062V13.1584Z" fill="#008135"/>
<path fill-rule="evenodd" clip-rule="evenodd" d="M111.588 10.647H110.496V2.56298C114.058 2.56298 114.647 2.94536 114.647 6.71426C114.647 9.51976 114.213 10.647 111.588 10.647ZM107.109 13.1596C109.333 13.1596 111.851 13.2742 113.962 12.9118C117.746 12.2623 117.815 8.9681 117.815 5.73104C117.815 2.78698 116.73 0.787972 114.073 0.297212C112.117 -0.0639428 109.199 0.0503862 107.109 0.0503862V13.1596Z" fill="#008135"/>
<path fill-rule="evenodd" clip-rule="evenodd" d="M18.4167 5.94937H16.9966V2.5628C18.5185 2.5628 20.9293 2.23002 20.9293 3.98298C20.9293 5.43701 20.1776 5.94937 18.4167 5.94937ZM14.1562 13.1594H16.9966V8.35271C19.7059 8.35271 18.6065 7.98462 20.2278 10.6929C20.7332 11.5372 21.0643 12.3821 21.5848 13.1594H24.8621C24.7443 12.6537 22.0757 8.51572 21.5848 7.588C24.8695 5.84994 24.4711 1.91221 22.4971 0.776562C20.652 -0.284936 16.7034 0.0502067 14.1562 0.0502067V13.1594Z" fill="#008135"/>
<path fill-rule="evenodd" clip-rule="evenodd" d="M72.2737 4.0928C72.3084 4.509 72.6887 5.61682 72.8335 6.04565C73.023 6.60697 73.2326 7.51933 73.4754 8.02558H70.9628C70.9917 7.67846 71.9337 4.34194 72.2737 4.0928ZM66.0469 13.16H69.3242C69.4793 12.8366 70.0543 10.9535 70.0889 10.5382H74.2401C74.4517 11.446 74.8028 12.2928 75.0049 13.16H78.3914C78.3528 12.6964 78.0446 11.9545 77.8864 11.4801C77.6868 10.8814 77.5397 10.44 77.3402 9.84151L74.0217 0.0507812H70.4166L67.0977 9.8411C66.8964 10.4506 66.0839 12.7147 66.0469 13.16Z" fill="#008135"/>
<path fill-rule="evenodd" clip-rule="evenodd" d="M32.3988 3.98355C32.4398 4.47671 33.4339 7.31078 33.6005 8.02558H31.0879C31.2462 7.34588 31.483 6.69446 31.7035 6.01935C31.8451 5.58577 32.1489 4.34314 32.3988 3.98355ZM26.1719 13.16H29.5584C29.5678 13.0468 30.0881 10.5382 30.5416 10.5382H34.1467C34.5391 10.5382 34.467 10.8945 34.7351 11.6976C34.8613 12.0755 35.0992 12.7911 35.1299 13.16H38.6257L36.3992 6.64702C36.0205 5.50051 35.6888 4.51383 35.3071 3.3693C34.983 2.39711 34.5602 0.832299 34.1467 0.0507812H30.5416C30.5034 0.51008 30.1538 1.26674 30.0092 1.70325L26.1719 13.16Z" fill="#008135"/>
<path fill-rule="evenodd" clip-rule="evenodd" d="M95.2109 13.16H104.278V10.5382H98.4882V7.91633H103.841V5.29448H98.4882C98.4882 3.72001 98.246 2.56338 98.816 2.56338H104.278V0.0507812H95.2109V13.16Z" fill="#008135"/>
<path fill-rule="evenodd" clip-rule="evenodd" d="M42.0104 13.16H45.5062L49.4232 1.78294C49.6169 1.26633 49.8626 0.576885 49.9852 0.0507812H46.5986C46.2201 1.67525 45.0018 4.85438 44.523 6.6054C44.4145 7.00223 44.3114 7.29324 44.1814 7.68395L43.7983 8.72105C43.7904 8.73604 43.7735 8.76841 43.7583 8.79029C43.6942 8.02038 41.3538 1.45267 41.0272 0.0507812H37.6406C37.6551 0.700752 39.5643 5.87232 39.8117 6.61924L41.478 11.5076C41.6226 11.9441 41.9722 12.7007 42.0104 13.16Z" fill="#008135"/>
<path fill-rule="evenodd" clip-rule="evenodd" d="M0.71875 3.00034H4.97928V12.8323C4.97928 13.084 5.05529 13.16 5.30698 13.16H8.36583V3.00034H12.6263V0.0507812H0.71875V3.00034Z" fill="#008135"/>
<path fill-rule="evenodd" clip-rule="evenodd" d="M124.375 9.99149C124.375 13.3105 127.402 13.7747 129.003 12.8717C129.539 12.5695 129.701 12.1955 130.056 11.9579C130.056 12.5395 130.154 12.569 130.165 13.0503H132.568C132.557 12.5563 132.459 12.6162 132.459 12.0671V4.5293H129.728V9.77299C129.728 11.2574 127.106 11.8118 127.106 9.55449V4.5293H124.375V9.99149Z" fill="#008135"/>
<path fill-rule="evenodd" clip-rule="evenodd" d="M137.808 11.3022C136.026 11.3022 136.502 9.67353 137.352 9.31696C137.681 9.17918 138.508 9.00803 139.01 9.00803C139.01 9.67931 139.19 11.3022 137.808 11.3022ZM134.531 5.07526C134.746 5.5249 134.861 6.37355 135.077 6.82319C135.977 6.347 138.9 5.37799 138.9 7.3694H138.136C136.225 7.3694 133.984 8.46232 133.984 10.319V10.8652C133.984 12.2715 135.286 13.2686 136.825 13.2686C138.028 13.2686 138.531 12.7519 139.228 12.2853C139.228 12.7166 139.262 12.7286 139.337 13.0501H141.741L141.631 10.1005C141.631 7.2919 142.054 4.31055 137.699 4.31055C136.546 4.31055 135.284 4.67674 134.531 5.07526Z" fill="#008135"/>
<path fill-rule="evenodd" clip-rule="evenodd" d="M119.68 11.6307C119.68 13.9139 122.848 13.5946 122.848 11.8492C122.848 9.16853 119.68 9.60099 119.68 11.6307Z" fill="#008135"/>
</svg>
