<svg width="76" height="78" viewBox="0 0 76 78" fill="none" xmlns="http://www.w3.org/2000/svg">
<path d="M45.5134 47.1601C43.1253 48.1942 40.4917 48.7672 37.7244 48.7672C26.8766 48.7672 18.0826 39.9612 18.0826 29.0985C18.0826 18.2357 26.8766 9.42972 37.7244 9.42972C48.5723 9.42972 57.3662 18.2357 57.3662 29.0985C57.1274 32.1393 56.8576 37.2869 51.8438 42.3499M26.8368 3.85451C30.1744 2.4093 33.8551 1.6084 37.7227 1.6084C52.8835 1.6084 65.1738 13.9156 65.1738 29.0972C65.1738 44.2789 52.8835 56.5861 37.7227 56.5861C22.5618 56.5861 10.2715 44.2789 10.2715 29.0972C10.6396 24.4105 11.0603 16.1427 20.3685 8.40162M32.7559 56.3478C32.7559 56.3478 21.5151 75.898 21.1601 76.135C20.8051 76.372 17.8463 66.7746 17.6104 66.4191C17.3745 66.0637 7.00856 68.7652 7.19787 68.1964C7.33846 67.7741 9.22776 64.5813 10.8694 61.8496M15.0029 55.047L18.5526 48.7672M57.1228 48.7661C57.1228 48.7661 68.3604 67.7926 68.3895 68.2189C68.4186 68.6451 58.6303 66.4507 58.2051 66.4792C57.7798 66.5076 54.9736 76.8589 54.5746 76.412C54.1757 75.965 50.997 70.2669 49.4575 67.4738M45.516 60.4876L43.3814 56.8892M37.8473 17.3665C37.374 17.3663 34.7707 23.6462 34.5342 23.7647C34.2977 23.8832 26.7247 24.9496 26.6065 25.1866C26.4884 25.4235 31.5761 30.6369 31.6944 30.8739C31.8128 31.1109 30.5112 38.5755 30.7479 38.694C30.9845 38.8125 37.4923 35.3764 37.8473 35.3764C38.2023 35.3764 44.3551 38.8125 44.5918 38.694C44.8284 38.5755 43.2902 31.1109 43.4085 30.8739C43.5268 30.6369 49.443 26.016 49.3247 25.779C49.2064 25.542 41.752 23.8832 41.6337 23.7647C41.5153 23.6462 38.3206 17.3667 37.8473 17.3665Z" stroke="#818C87" stroke-width="3" stroke-linecap="round"/>
</svg>
