<svg width="79" height="76" viewBox="0 0 79 76" fill="none" xmlns="http://www.w3.org/2000/svg">
<path d="M42.3169 52.3461C42.3165 50.346 43.3818 47.9859 45.7084 47.2021C48.2521 46.3451 51.0255 48.1802 51.6436 52.346C52.0676 55.2034 48.2521 62.0633 46.1324 66.0638C46.1324 66.0638 42.8904 72.1485 42.7408 72.3505C42.5289 72.6367 45.4965 72.6367 47.1922 72.6367H52.4915M68.2172 64.386C68.258 57.3954 68.2844 48.2651 68.1573 46.7166C68.1083 46.1194 66.6809 46.4307 66.6809 46.4307C66.4685 46.4306 63.9423 51.5606 63.0986 53.5561C62.2616 55.5354 58.0431 64.386 58.8849 64.386H68.2172ZM68.2172 64.386C68.1904 68.9718 68.1573 72.6367 68.1573 72.6367M72.8419 37.9461C72.8419 18.4302 56.9466 2.60938 37.3389 2.60938C17.7312 2.60938 1.83594 18.4302 1.83594 37.9461C1.83594 56.1769 16.4099 71.8254 35.1172 73.3539M68.4058 34.239C68.4058 34.239 72.2889 38.4416 72.8436 38.4416C73.2874 38.4416 76.8377 34.239 76.8377 34.239M39.3359 9.61238V2.71741M8.76334 38.3772H1.83594M29.4922 28.5994L39.2555 38.4424M57.8651 19.64L39.2261 38.6625M41.6644 38.4431C41.6644 39.6647 40.671 40.655 39.4455 40.655C38.22 40.655 37.2266 39.6647 37.2266 38.4431C37.2266 37.2215 38.22 36.2312 39.4455 36.2312C40.671 36.2312 41.6644 37.2215 41.6644 38.4431Z" stroke="#00963F" stroke-width="3" stroke-linecap="round"/>
</svg>
