<svg width="79" height="78" viewBox="0 0 79 78" fill="none" xmlns="http://www.w3.org/2000/svg">
<path d="M13.9485 53.309C13.9485 63.6398 14.299 76.5063 13.866 76.5063H2.49772C2.25521 76.5063 2.38168 46.272 2.49859 46.2578C3.50151 46.1361 10.3222 46.2578 11.4048 46.2578M21.8345 70.6469C28.3517 72.8737 39.9612 76.8041 42.0904 76.3709C44.2197 75.9377 76.1551 60.1953 77.2291 57.8351C77.9734 56.1996 77.2291 53.6363 74.3326 53.636C70.8088 53.6356 57.5367 57.5121 53.7095 59.1626M13.9536 53.1445C17.9581 49.6462 26.1369 42.6497 27.4475 42.6497C28.758 42.6497 44.9215 48.6467 46.7417 50.8956C48.5619 53.1445 46.936 55.9649 45.1701 56.4241C43.9089 56.7521 34.9223 55.4402 30.3502 55.1123M64.2582 26.8184C64.2582 34.6133 64.4108 49.084 64.2582 49.084C64.1056 49.084 59.5913 49.062 54.766 49.084M25.46 26.8184V35.5982M23.6566 10.3608C23.6566 10.3608 23.4455 18.7918 23.6573 18.7918C23.869 18.7918 65.8933 19.008 65.8933 18.7918C65.8933 18.5756 66.0521 10.3608 65.6265 10.3608H31.9089M38.2407 10.0329C38.5285 9.00586 38.0711 1.50586 38.6884 1.50586H51.22C51.713 1.50586 51.4836 8.53711 51.4836 10.0329" stroke="#818C87" stroke-width="3" stroke-linecap="round"/>
</svg>
