<svg width="78" height="76" viewBox="0 0 78 76" fill="none" xmlns="http://www.w3.org/2000/svg">
<path d="M47.1392 57.1398C44.6658 58.2509 41.9381 58.8667 39.0719 58.8667C30.9512 58.8667 23.9417 53.9236 20.6795 46.7757M20.6795 28.6889C23.9417 21.5411 30.9511 16.598 39.0719 16.598C47.1927 16.598 54.2021 21.5411 57.4644 28.6889M57.4644 46.518C56.5949 48.3899 55.3077 50.352 53.3794 52.2964M28.2188 42.1407V33.3253M37.9516 34.3558C37.3655 33.7146 36.6007 33.3253 35.3537 33.3253C33.7949 33.3253 32.8215 35.2684 34.0339 36.6988C35.3537 38.2558 37.6218 37.5149 37.9516 39.2865C38.2815 41.0581 37.3271 42.1407 35.6997 42.1407C34.06 42.1407 33.6495 41.6217 33.0088 40.973M11.373 29.3702H66.5669M11.4829 46.2086H66.6767M27.5807 10.2311C31.0882 8.65654 34.9563 7.78394 39.0207 7.78394C54.9535 7.78394 67.8696 21.1929 67.8696 37.7337C67.8696 54.2745 54.9535 67.6835 39.0207 67.6835C23.0879 67.6835 10.1719 54.2745 10.1719 37.7337C10.5587 32.6273 10.875 23.3525 21.0703 14.915M41.9428 4.30093C44.7288 2.90843 49.7228 1.51155 51.8755 2.68043C54.5572 4.13648 57.6359 10.8096 59.1043 11.6C60.5726 12.3903 68.0272 14.1968 68.9308 15.3258C69.8344 16.4549 70.5121 17.4791 70.5121 21.4227C70.5121 25.6002 69.981 26.9454 70.5121 28.1971C71.0701 29.5121 76.3022 35.1972 76.4984 38.9231C76.6114 41.0683 70.6891 46.8461 70.3992 48.9717C70.0603 51.4556 70.2862 58.2299 69.1567 60.3751C68.0272 62.5203 58.8307 64.4901 58.0877 65.0042C56.6194 66.0204 52.8921 72.9076 49.5036 73.9636C46.8601 74.7874 41.4775 71.4401 39.1123 71.214C35.1524 70.8355 30.5215 73.9968 27.7045 73.585C23.7513 73.0072 21.7115 66.4322 19.2333 64.4397C17.3065 62.8905 9.73226 61.6458 8.50989 59.8504C6.2536 56.5363 8.60993 50.6254 7.14774 47.2781C6.55842 45.929 1.5 40.0521 1.5 36.8908C1.5 34.5928 7.14774 28.6487 7.71219 26.8422C8.31832 24.9023 7.35449 17.5821 8.50989 15.7775C10.3171 12.9548 18.0238 12.028 19.5718 11.0357C22.2755 9.30256 24.8793 3.27467 27.7041 2.22876C30.7538 1.09964 33.5775 3.2449 35.9494 3.92234M45.8944 33.3253C46.4019 33.3253 47.42 33.4122 48.5335 34.3821C50.1072 35.7527 49.8503 38.4617 49.5484 39.6005C49.2135 40.8631 47.7041 42.1407 45.8944 42.1407C44.6178 42.1407 41.937 41.6879 41.937 38.035C41.937 34.3821 44.1072 33.3255 45.8944 33.3253Z" stroke="#00963F" stroke-width="3" stroke-linecap="round"/>
</svg>
